<?xml version="1.0" encoding="UTF-8"?>
<svg id="Layer_1" xmlns="http://www.w3.org/2000/svg" xmlns:xlink="http://www.w3.org/1999/xlink" version="1.1" viewBox="0 0 576 576">
  <!-- Generator: Adobe Illustrator 30.2.1, SVG Export Plug-In . SVG Version: 2.1.1 Build 1)  -->
  <defs>
    <style>
      .st0 {
        fill: url(#linear-gradient2);
        opacity: .3;
      }

      .st1 {
        fill: url(#linear-gradient);
      }

      .st2 {
        fill: none;
        stroke: url(#linear-gradient1);
        stroke-miterlimit: 10;
        stroke-width: 17.27px;
      }

      .st3 {
        fill: #e9b250;
      }

      .st4 {
        fill: #fff;
      }

      .st5 {
        fill: #eab151;
      }
    </style>
    <linearGradient id="linear-gradient" x1="15.61" y1="288" x2="560.39" y2="288" gradientUnits="userSpaceOnUse">
      <stop offset="0" stop-color="#e9b250"/>
      <stop offset=".05" stop-color="#c09749"/>
      <stop offset=".1" stop-color="#9c7f43"/>
      <stop offset=".15" stop-color="#7b6a3e"/>
      <stop offset=".21" stop-color="#605839"/>
      <stop offset=".28" stop-color="#4a4a36"/>
      <stop offset=".36" stop-color="#393f33"/>
      <stop offset=".47" stop-color="#2d3731"/>
      <stop offset=".61" stop-color="#263330"/>
      <stop offset="1" stop-color="#253230"/>
    </linearGradient>
    <linearGradient id="linear-gradient1" x1="1.51" y1="-1632.83" x2="563.55" y2="-1632.83" gradientTransform="translate(570.53 -1344.83) rotate(-180)" xlink:href="#linear-gradient"/>
    <linearGradient id="linear-gradient2" x1="29.3" y1="-1632.83" x2="535.76" y2="-1632.83" gradientTransform="translate(570.53 -1344.83) rotate(-180)" xlink:href="#linear-gradient"/>
  </defs>
  <path class="st1" d="M412.26,527.09h-248.53c-8.52,0-16.4-4.55-20.66-11.93L18.81,299.93c-4.26-7.38-4.26-16.48,0-23.86L143.07,60.84c4.26-7.38,12.14-11.93,20.66-11.93h248.53c8.52,0,16.4,4.55,20.66,11.93l124.26,215.23c4.26,7.38,4.26,16.48,0,23.86l-124.26,215.23c-4.26,7.38-12.14,11.93-20.66,11.93Z"/>
  <path class="st2" d="M163.74,527.09h248.53c8.52,0,16.4-4.55,20.66-11.93l124.26-215.23c4.26-7.38,4.26-16.48,0-23.86l-124.26-215.23c-4.26-7.38-12.14-11.93-20.66-11.93h-248.53c-8.52,0-16.4,4.55-20.66,11.93L18.81,276.07c-4.26,7.38-4.26,16.48,0,23.86l124.26,215.23c4.26,7.38,12.14,11.93,20.66,11.93Z"/>
  <path class="st0" d="M411.02,67.73c2.56,0,4.94,1.38,6.22,3.59l123.02,213.08c1.28,2.22,1.28,4.97,0,7.19l-123.02,213.08c-1.28,2.22-3.66,3.59-6.22,3.59h-246.04c-2.56,0-4.94-1.38-6.22-3.59l-123.02-213.08c-1.28-2.22-1.28-4.97,0-7.19l123.02-213.08c1.28-2.22,3.66-3.59,6.22-3.59h246.05Z"/>
  <g>
    <path class="st4" d="M220.53,361.41c-.12.21-.24.36-.38.45s-.3.14-.5.14c-.21,0-.43-.08-.67-.23-.24-.15-.53-.32-.86-.51s-.73-.36-1.18-.51c-.45-.15-.98-.23-1.59-.23-.55,0-1.03.07-1.45.2s-.76.32-1.04.55-.49.52-.63.85c-.14.33-.21.69-.21,1.09,0,.5.14.92.42,1.26.28.34.65.62,1.12.86.46.24.99.45,1.58.64.59.19,1.2.39,1.82.6s1.23.46,1.82.74c.59.28,1.12.64,1.58,1.06s.84.95,1.12,1.57c.28.62.42,1.38.42,2.26,0,.97-.17,1.87-.5,2.71-.33.84-.81,1.58-1.45,2.2s-1.41,1.12-2.33,1.48c-.92.36-1.97.54-3.15.54-.68,0-1.35-.07-2.01-.2-.66-.13-1.29-.32-1.9-.57s-1.18-.54-1.71-.89c-.53-.34-1.01-.73-1.42-1.15l1.17-1.91c.1-.14.23-.25.38-.35s.33-.14.5-.14c.25,0,.51.1.8.3s.63.43,1.02.67c.39.25.86.47,1.38.67.53.2,1.16.3,1.9.3,1.13,0,2.01-.27,2.63-.81s.93-1.31.93-2.31c0-.56-.14-1.02-.42-1.38-.28-.36-.65-.65-1.12-.9-.46-.24-.99-.45-1.58-.61s-1.19-.35-1.8-.55c-.61-.2-1.21-.43-1.8-.71-.59-.28-1.12-.64-1.58-1.08-.46-.44-.84-1-1.12-1.66s-.42-1.49-.42-2.46c0-.78.16-1.54.47-2.28.31-.74.76-1.4,1.35-1.97.59-.57,1.32-1.03,2.19-1.38.87-.34,1.86-.52,2.99-.52,1.26,0,2.43.2,3.49.59,1.07.39,1.97.95,2.72,1.66l-.99,1.88Z"/>
    <path class="st4" d="M240.3,360.79h-6.45v18.12h-3.98v-18.12h-6.45v-3.27h16.87v3.27Z"/>
    <path class="st4" d="M259.81,378.91h-3.59c-.68,0-1.17-.27-1.48-.8l-4.5-6.85c-.17-.26-.35-.44-.55-.55s-.5-.16-.89-.16h-1.7v8.36h-3.98v-21.39h6.52c1.45,0,2.69.15,3.73.45,1.04.3,1.89.72,2.56,1.26.67.54,1.16,1.19,1.47,1.94.32.75.47,1.59.47,2.49,0,.72-.11,1.4-.32,2.04-.21.64-.52,1.22-.92,1.75-.4.52-.89.98-1.48,1.38-.59.39-1.25.7-2,.93.26.15.49.32.71.52.22.2.41.44.59.72l5.35,7.9ZM249.57,367.7c.75,0,1.4-.09,1.96-.28.56-.19,1.02-.45,1.38-.78.36-.33.63-.72.81-1.18.18-.45.27-.95.27-1.49,0-1.08-.36-1.92-1.07-2.5-.71-.58-1.81-.87-3.28-.87h-2.54v7.1h2.48Z"/>
    <path class="st4" d="M280.45,378.91h-3.08c-.34,0-.63-.09-.84-.26-.22-.17-.38-.39-.49-.64l-1.6-4.36h-8.86l-1.6,4.36c-.08.23-.23.43-.46.62-.23.19-.51.28-.84.28h-3.11l8.41-21.39h4.05l8.4,21.39ZM273.43,370.83l-2.6-7.11c-.13-.32-.26-.69-.4-1.12-.14-.43-.28-.9-.41-1.41-.13.5-.26.97-.4,1.41-.14.44-.27.82-.4,1.15l-2.59,7.08h6.8Z"/>
    <path class="st4" d="M295.52,360.79h-6.45v18.12h-3.98v-18.12h-6.45v-3.27h16.87v3.27Z"/>
    <path class="st4" d="M302.32,360.69v5.93h7.48v3.06h-7.48v6.05h9.49v3.18h-13.49v-21.39h13.49v3.16h-9.49Z"/>
    <path class="st4" d="M332.51,368.19v8.65c-1.08.8-2.24,1.38-3.47,1.75-1.23.37-2.54.55-3.94.55-1.75,0-3.33-.27-4.74-.81-1.41-.54-2.62-1.3-3.62-2.26-1-.97-1.77-2.12-2.31-3.46-.54-1.34-.81-2.81-.81-4.39s.26-3.08.78-4.42c.52-1.34,1.26-2.49,2.23-3.46.96-.97,2.13-1.72,3.5-2.25,1.37-.53,2.91-.8,4.61-.8.87,0,1.68.07,2.43.21.75.14,1.45.33,2.1.57s1.23.54,1.77.88,1.02.72,1.46,1.14l-1.14,1.8c-.18.29-.41.46-.69.53-.29.06-.6,0-.93-.22l-.98-.56c-.33-.19-.69-.35-1.09-.49-.4-.14-.85-.25-1.35-.34-.5-.09-1.07-.13-1.72-.13-1.05,0-2.01.18-2.86.53-.85.36-1.58.86-2.18,1.52-.6.66-1.07,1.45-1.39,2.38-.33.93-.49,1.96-.49,3.11,0,1.22.18,2.31.53,3.28.35.96.84,1.77,1.48,2.44s1.4,1.17,2.3,1.52c.9.35,1.9.52,3,.52.79,0,1.49-.08,2.11-.25.62-.17,1.23-.39,1.82-.68v-3.87h-2.69c-.26,0-.46-.07-.6-.22s-.21-.32-.21-.52v-2.25h7.1Z"/>
    <path class="st4" d="M340.35,378.91h-3.99v-21.39h3.99v21.39Z"/>
    <path class="st4" d="M359.81,373.87c.22,0,.41.08.58.25l1.57,1.7c-.87,1.07-1.93,1.9-3.2,2.47s-2.79.86-4.56.86c-1.59,0-3.01-.27-4.28-.81-1.27-.54-2.35-1.3-3.25-2.26-.9-.97-1.59-2.12-2.06-3.46-.48-1.34-.72-2.81-.72-4.39s.26-3.08.77-4.41c.51-1.33,1.23-2.49,2.17-3.45.93-.97,2.04-1.72,3.34-2.26,1.29-.54,2.72-.81,4.29-.81s2.94.26,4.15.77c1.21.51,2.24,1.18,3.08,2.01l-1.33,1.85c-.08.12-.18.22-.3.31s-.29.13-.51.13c-.15,0-.3-.04-.46-.13-.16-.08-.33-.19-.52-.31s-.4-.26-.65-.41c-.25-.15-.53-.28-.86-.41s-.7-.23-1.13-.31c-.43-.08-.92-.13-1.49-.13-.96,0-1.83.17-2.62.51-.79.34-1.48.83-2.05,1.48-.57.65-1.02,1.43-1.33,2.37-.32.93-.47,2-.47,3.19s.17,2.27.51,3.21c.34.94.8,1.72,1.38,2.37.58.64,1.27,1.13,2.06,1.47.79.34,1.64.51,2.54.51.54,0,1.03-.03,1.47-.09.44-.06.84-.15,1.21-.28.37-.13.72-.29,1.05-.5.33-.2.66-.45.98-.75.1-.09.2-.16.31-.22.11-.05.22-.08.34-.08Z"/>
    <path class="st4" d="M221.61,412.95h-3.08c-.34,0-.63-.09-.84-.26-.22-.17-.38-.39-.49-.64l-1.6-4.36h-8.86l-1.6,4.36c-.08.23-.23.43-.46.62-.23.19-.51.28-.84.28h-3.11l8.41-21.39h4.05l8.4,21.39ZM214.59,404.87l-2.6-7.11c-.13-.32-.26-.69-.4-1.12-.14-.43-.28-.9-.41-1.41-.13.5-.26.97-.4,1.41-.14.44-.27.82-.4,1.15l-2.59,7.08h6.8Z"/>
    <path class="st4" d="M236.36,409.67v3.28h-12.53v-21.39h3.98v18.1h8.55Z"/>
    <path class="st4" d="M243.19,412.95h-3.99v-21.39h3.99v21.39Z"/>
    <path class="st4" d="M265.59,402.23v8.65c-1.08.8-2.24,1.38-3.47,1.75-1.23.37-2.54.55-3.94.55-1.75,0-3.33-.27-4.74-.81-1.41-.54-2.62-1.3-3.62-2.26-1-.97-1.77-2.12-2.31-3.46-.54-1.34-.81-2.81-.81-4.39s.26-3.08.78-4.42c.52-1.34,1.26-2.49,2.23-3.46.96-.97,2.13-1.72,3.5-2.25,1.37-.53,2.91-.8,4.61-.8.87,0,1.68.07,2.43.21.75.14,1.45.33,2.1.57s1.23.54,1.77.88,1.02.72,1.46,1.14l-1.14,1.8c-.18.29-.41.46-.69.53-.29.06-.6,0-.93-.22l-.98-.56c-.33-.19-.69-.35-1.09-.49-.4-.14-.85-.25-1.35-.34-.5-.09-1.07-.13-1.72-.13-1.05,0-2.01.18-2.86.53-.85.36-1.58.86-2.18,1.52-.6.66-1.07,1.45-1.39,2.38-.33.93-.49,1.96-.49,3.11,0,1.22.18,2.31.53,3.28.35.96.84,1.77,1.48,2.44s1.4,1.17,2.3,1.52c.9.35,1.9.52,3,.52.79,0,1.49-.08,2.11-.25.62-.17,1.23-.39,1.82-.68v-3.87h-2.69c-.26,0-.46-.07-.6-.22s-.21-.32-.21-.52v-2.25h7.1Z"/>
    <path class="st4" d="M287.47,391.56v21.39h-2.04c-.32,0-.58-.05-.79-.16s-.42-.28-.61-.52l-11.17-14.26c.06.65.09,1.25.09,1.8v13.13h-3.51v-21.39h2.09c.17,0,.31,0,.44.02.12.01.23.04.33.09.09.04.18.11.27.19.09.08.19.19.3.33l11.21,14.32c-.03-.34-.05-.69-.07-1.02-.02-.33-.03-.65-.03-.93v-13h3.51Z"/>
    <path class="st4" d="M315.42,391.56v21.39h-3.5v-13.81c0-.55.03-1.15.09-1.79l-6.46,12.14c-.31.58-.77.87-1.41.87h-.56c-.63,0-1.1-.29-1.4-.87l-6.54-12.19c.03.33.05.65.07.96.02.32.03.61.03.87v13.81h-3.51v-21.39h3c.18,0,.33,0,.46.01.13,0,.24.04.35.07.1.04.2.1.28.19.08.09.17.21.24.36l6.4,11.88c.17.32.32.64.47.98.14.34.28.68.42,1.03.14-.36.28-.72.43-1.06.15-.34.31-.67.47-.98l6.32-11.85c.08-.15.16-.27.25-.36.09-.09.19-.15.29-.19.1-.04.22-.06.35-.07.13,0,.28-.01.46-.01h3Z"/>
    <path class="st4" d="M324.17,394.73v5.93h7.48v3.06h-7.48v6.05h9.49v3.18h-13.49v-21.39h13.49v3.16h-9.49Z"/>
    <path class="st4" d="M355.22,391.56v21.39h-2.04c-.32,0-.58-.05-.79-.16s-.42-.28-.61-.52l-11.17-14.26c.06.65.09,1.25.09,1.8v13.13h-3.51v-21.39h2.09c.17,0,.31,0,.44.02.12.01.23.04.33.09.09.04.18.11.27.19.09.08.19.19.3.33l11.21,14.32c-.03-.34-.05-.69-.07-1.02-.02-.33-.03-.65-.03-.93v-13h3.51Z"/>
    <path class="st4" d="M374.91,394.83h-6.45v18.12h-3.98v-18.12h-6.45v-3.27h16.87v3.27Z"/>
  </g>
  <path class="st5" d="M336.58,204.49l2.56.69,1.2,3.47c.28.8.98,1.37,1.82,1.48l8.01,1.03c.91.12,1.8-.34,2.24-1.14l5.71-10.48c.53-.97.27-2.17-.61-2.84l-21.03-15.97,2.41-4.17c.58-1,.29-2.27-.65-2.93-7.5-5.26-17.1-6.47-25.67-3.22-1.15.44-1.73,1.72-1.29,2.87.44,1.15,1.72,1.73,2.87,1.29,6.55-2.48,13.82-1.86,19.82,1.61l-2.33,4.03c-.56.97-.31,2.21.58,2.88l21.06,16-4.07,7.46-5.13-.66-1.13-3.28c-.24-.7-.81-1.23-1.53-1.42l-4.45-1.19c-.51-.14-1.05-.09-1.53.14-4.21,1.99-9.18,1.29-12.67-1.79-.63-.55-1.51-.71-2.29-.4-.78.31-1.32,1.02-1.4,1.85l-.83,8.48c-.07.69.19,1.38.7,1.85,1.72,1.6,3.52,3.17,5.27,4.69,9.96,8.68,19.38,16.89,20.37,33.91h-45.44v-30.03c0-1.23-1-2.23-2.23-2.23s-2.23,1-2.23,2.23v30.03h-.49c-4.61,0-8.37,3.75-8.37,8.37v9.56c0,1.23,1,2.23,2.23,2.23h67.7c1.23,0,2.23-1,2.23-2.23v-9.56c0-4.61-3.75-8.37-8.37-8.37h-.57c-.45-8.34-2.83-15.57-7.25-22.05-4.13-6.05-9.48-10.71-14.65-15.22-1.44-1.26-2.93-2.55-4.36-3.85l.36-3.67c4.13,2.11,9.03,2.35,13.42.55h0ZM349.63,253.17c2.16,0,3.92,1.76,3.92,3.92v7.34h-63.25v-7.34c0-2.16,1.76-3.92,3.92-3.92h55.42ZM310.76,185.09c0-8.01-2.58-15.65-7.35-21.95h8.23c.59,0,1.16-.23,1.57-.65l13.64-13.64c.64-.64.83-1.59.48-2.43s-1.16-1.37-2.06-1.37h-10.93v-10.93c0-.9-.54-1.71-1.37-2.06-.83-.34-1.79-.15-2.43.48l-13.64,13.64c-.42.42-.65.98-.65,1.57v12.23l-23.52,23.52c-.87.87-.87,2.28,0,3.15.43.43,1,.65,1.57.65s1.14-.22,1.57-.65l7.51-7.51c1.15,1.75,1.77,3.81,1.77,5.94,0,5.99-4.87,10.86-10.86,10.86s-10.86-4.87-10.86-10.86,4.87-10.86,10.86-10.86c.72,0,1.43.07,2.12.21,1.21.24,2.38-.54,2.62-1.75s-.54-2.38-1.75-2.62c-.98-.19-1.98-.29-2.99-.29-8.44,0-15.31,6.87-15.31,15.31s6.87,15.31,15.31,15.31,15.31-6.87,15.31-15.31c0-3.32-1.07-6.5-3.03-9.13l4.36-4.36c3.09,3.81,4.79,8.54,4.79,13.49,0,11.81-9.61,21.42-21.42,21.42s-21.42-9.61-21.42-21.42,9.61-21.42,21.42-21.42c3.49,0,6.82.81,9.89,2.42,1.09.57,2.43.15,3-.94.57-1.09.15-2.43-.94-3-3.66-1.91-7.79-2.92-11.95-2.92-14.27,0-25.87,11.61-25.87,25.87s11.61,25.88,25.87,25.88,25.87-11.61,25.87-25.88c0-6.14-2.15-11.99-6.08-16.65l4.34-4.34c5.08,5.82,7.85,13.21,7.85,20.99,0,17.64-14.35,31.99-31.99,31.99s-31.99-14.35-31.99-31.99,14.35-31.99,31.99-31.99c5.98,0,11.81,1.66,16.86,4.8,1.04.65,2.42.33,3.06-.72.65-1.04.33-2.42-.72-3.06-5.13-3.19-10.96-5.03-16.98-5.39v-18.1c0-1.23-1-2.23-2.23-2.23h-6.94c-2.33,0-4.27,1.6-4.72,3.88l-1.25,6.33-10.83,4.49-5.36-3.59c-1.93-1.3-4.43-1.05-6.08.59l-9.82,9.82c-1.65,1.65-1.89,4.15-.59,6.08l3.59,5.36-4.49,10.83-6.32,1.25c-2.28.45-3.88,2.39-3.88,4.72v13.89c0,2.33,1.6,4.27,3.88,4.72l6.33,1.25,4.49,10.83-3.59,5.36c-1.3,1.93-1.05,4.43.59,6.08l9.82,9.82c1.65,1.65,4.15,1.89,6.08.59l5.36-3.59,10.83,4.49,1.25,6.33c.45,2.28,2.39,3.88,4.72,3.88h6.94c1.23,0,2.23-1,2.23-2.23v-18.09c19.06-1.15,34.22-17.03,34.22-36.37h0ZM300.71,148.69l9.19-9.19v7.78c0,1.23,1,2.23,2.23,2.23h7.78l-9.19,9.19h-10.01v-10.01h0ZM272.09,237.33h-4.72c-.18,0-.32-.11-.35-.29l-1.48-7.49c-.14-.73-.64-1.34-1.33-1.63l-13.03-5.4c-.69-.29-1.47-.21-2.09.21l-6.35,4.26c-.15.1-.32.09-.45-.04l-9.82-9.82c-.13-.13-.15-.3-.04-.45l4.26-6.35c.41-.62.49-1.4.21-2.09l-5.4-13.03c-.28-.69-.89-1.19-1.63-1.33l-7.49-1.48c-.18-.04-.29-.17-.29-.35v-13.89c0-.18.11-.32.29-.35l7.49-1.48c.73-.14,1.34-.64,1.63-1.33l5.4-13.03c.29-.69.21-1.47-.21-2.09l-4.26-6.35c-.1-.15-.09-.32.04-.45l9.82-9.82c.13-.13.3-.15.45-.04l6.35,4.26c.62.42,1.4.49,2.09.21l13.03-5.4c.69-.28,1.19-.89,1.33-1.63l1.48-7.49c.04-.18.17-.29.35-.29h4.72v15.87c-19.06,1.15-34.22,17.02-34.22,36.37s15.15,35.22,34.22,36.37v15.87h0Z"/>
  <g>
    <path class="st3" d="M137.45,330.56l12.13-29.58h8.87l12.13,29.58h-6.39l-2.43-5.91h-15.62l-2.43,5.91h-6.27ZM159.57,319.32l-5.32-13.01h-.59l-5.32,13.01h11.24Z"/>
    <path class="st3" d="M176.79,300.98h5.92v24.25h17.74v5.32h-23.66v-29.58Z"/>
    <path class="st3" d="M207.25,330.56v-29.58h5.92v29.58h-5.92Z"/>
    <path class="st3" d="M235.94,318.73v-5.32h15.2c.12.77.18,1.54.18,2.37,0,8.87-6.51,15.38-15.38,15.38s-15.38-6.51-15.38-15.38,6.51-15.38,15.38-15.38c4.44,0,8.28,1.6,11,4.32l-4.2,4.26c-1.66-1.83-4.02-2.96-6.8-2.96-5.32,0-9.17,4.14-9.17,9.76s3.85,9.76,9.17,9.76c4.32,0,7.69-2.72,8.81-6.8h-8.81Z"/>
    <path class="st3" d="M264.63,310.15v20.41h-5.92v-29.58h5.32l18.34,20.41v-20.41h5.92v29.58h-5.32l-18.34-20.41Z"/>
    <path class="st3" d="M311.78,313.4h.41l9.23-12.42h5.32v29.58h-5.92v-20.7h-.12s-.59,1.89-1.66,3.31l-4.14,5.56h-5.92l-4.14-5.56c-1.07-1.42-1.66-3.31-1.66-3.31h-.12v20.7h-5.92v-29.58h5.32l9.29,12.42Z"/>
    <path class="st3" d="M341.54,306.3v6.8h17.15v5.32h-17.15v6.8h23.07v5.32h-28.98v-29.58h28.98v5.32h-23.07Z"/>
    <path class="st3" d="M378.51,310.15v20.41h-5.92v-29.58h5.32l18.34,20.41v-20.41h5.92v29.58h-5.32l-18.34-20.41Z"/>
    <path class="st3" d="M408.97,300.98h29.58v5.32h-11.83v24.25h-5.91v-24.25h-11.83v-5.32Z"/>
  </g>
</svg>