<?xml version="1.0" encoding="UTF-8"?>
<svg id="Layer_1" xmlns="http://www.w3.org/2000/svg" xmlns:xlink="http://www.w3.org/1999/xlink" version="1.1" viewBox="0 0 576 576">
  <!-- Generator: Adobe Illustrator 30.2.1, SVG Export Plug-In . SVG Version: 2.1.1 Build 1)  -->
  <defs>
    <style>
      .st0 {
        fill: url(#linear-gradient);
      }

      .st1 {
        fill: none;
        stroke: url(#linear-gradient1);
        stroke-miterlimit: 10;
        stroke-width: 17.27px;
      }

      .st2 {
        fill: #e9b250;
      }

      .st3 {
        fill: #fff;
      }

      .st4 {
        fill: #eab151;
      }
    </style>
    <linearGradient id="linear-gradient" x1="16.1" y1="285.22" x2="559.9" y2="285.22" gradientUnits="userSpaceOnUse">
      <stop offset="0" stop-color="#e9b250"/>
      <stop offset=".05" stop-color="#c09749"/>
      <stop offset=".1" stop-color="#9c7f43"/>
      <stop offset=".15" stop-color="#7b6a3e"/>
      <stop offset=".21" stop-color="#605839"/>
      <stop offset=".28" stop-color="#4a4a36"/>
      <stop offset=".36" stop-color="#393f33"/>
      <stop offset=".47" stop-color="#2d3731"/>
      <stop offset=".61" stop-color="#263330"/>
      <stop offset="1" stop-color="#253230"/>
    </linearGradient>
    <linearGradient id="linear-gradient1" x1="2" y1="-1630.06" x2="563.06" y2="-1630.06" gradientTransform="translate(570.53 -1344.83) rotate(-180)" xlink:href="#linear-gradient"/>
  </defs>
  <path class="st0" d="M412.02,46.56h-248.04c-8.52,0-16.4,4.55-20.66,11.93L19.3,273.3c-4.26,7.38-4.26,16.48,0,23.86l124.02,214.81c4.26,7.38,12.14,11.93,20.66,11.93h248.04c8.52,0,16.4-4.55,20.66-11.93l124.02-214.81c4.26-7.38,4.26-16.48,0-23.86l-124.02-214.81c-4.26-7.38-12.14-11.93-20.66-11.93Z"/>
  <path class="st1" d="M163.98,523.89h248.04c8.52,0,16.4-4.55,20.66-11.93l124.02-214.81c4.26-7.38,4.26-16.48,0-23.86l-124.02-214.81c-4.26-7.38-12.14-11.93-20.66-11.93h-248.04c-8.52,0-16.4,4.55-20.66,11.93L19.3,273.3c-4.26,7.38-4.26,16.48,0,23.86l124.02,214.81c4.26,7.38,12.14,11.93,20.66,11.93Z"/>
  <g>
    <path class="st3" d="M203.2,363.18c.22,0,.41.08.58.25l1.57,1.7c-.87,1.07-1.93,1.89-3.2,2.47-1.26.57-2.78.86-4.55.86-1.58,0-3.01-.27-4.27-.81-1.26-.54-2.35-1.29-3.24-2.26-.89-.96-1.58-2.12-2.06-3.45-.48-1.34-.72-2.8-.72-4.38s.26-3.07.77-4.41,1.23-2.48,2.16-3.45c.93-.96,2.04-1.71,3.33-2.25,1.29-.54,2.72-.8,4.28-.8s2.94.26,4.14.77c1.21.51,2.23,1.18,3.08,2.01l-1.33,1.85c-.08.12-.18.22-.3.31-.12.09-.29.13-.51.13-.15,0-.3-.04-.46-.13-.16-.08-.33-.19-.52-.31-.19-.12-.4-.26-.65-.41-.25-.15-.53-.28-.86-.41-.33-.12-.7-.23-1.13-.31-.43-.08-.92-.13-1.48-.13-.96,0-1.83.17-2.62.51-.79.34-1.47.83-2.04,1.48-.57.65-1.01,1.43-1.33,2.36-.32.93-.47,1.99-.47,3.18s.17,2.27.51,3.2c.34.94.8,1.72,1.38,2.36s1.26,1.13,2.05,1.47,1.63.51,2.54.51c.54,0,1.03-.03,1.47-.09s.84-.15,1.21-.28c.37-.13.72-.29,1.05-.49.33-.2.66-.45.98-.75.1-.09.2-.16.31-.21.11-.05.22-.08.34-.08Z"/>
    <path class="st3" d="M227.98,357.54c0,1.56-.26,3.01-.78,4.35s-1.25,2.49-2.19,3.46-2.08,1.73-3.41,2.28c-1.33.55-2.8.82-4.43.82s-3.09-.27-4.41-.82-2.47-1.31-3.42-2.28-1.69-2.13-2.21-3.46-.78-2.78-.78-4.35.26-3.01.78-4.35,1.26-2.49,2.21-3.46c.95-.97,2.09-1.73,3.42-2.28s2.8-.82,4.41-.82c1.08,0,2.1.13,3.06.38.96.25,1.83.61,2.63,1.06s1.51,1.01,2.15,1.67c.64.65,1.17,1.39,1.62,2.19.44.81.78,1.68,1.01,2.63s.35,1.94.35,2.98ZM223.92,357.54c0-1.17-.16-2.22-.47-3.15-.32-.93-.76-1.72-1.34-2.37-.58-.65-1.29-1.15-2.12-1.49s-1.77-.52-2.81-.52-1.98.17-2.81.52c-.83.34-1.54.84-2.13,1.49-.59.65-1.04,1.44-1.35,2.37-.32.93-.47,1.98-.47,3.15s.16,2.22.47,3.15c.31.93.77,1.72,1.35,2.36s1.29,1.14,2.13,1.48c.83.34,1.77.52,2.81.52s1.98-.17,2.81-.52,1.54-.84,2.12-1.48c.58-.64,1.03-1.43,1.34-2.36.31-.93.47-1.98.47-3.15Z"/>
    <path class="st3" d="M240.07,365.01c.77,0,1.45-.13,2.06-.38.6-.26,1.11-.62,1.53-1.08.41-.46.73-1.02.95-1.68.22-.66.33-1.4.33-2.21v-12.78h3.97v12.78c0,1.27-.2,2.44-.61,3.52-.41,1.08-.99,2.01-1.76,2.79-.76.78-1.69,1.39-2.78,1.83s-2.32.66-3.69.66-2.61-.22-3.71-.66-2.02-1.05-2.78-1.83-1.35-1.71-1.76-2.79-.61-2.25-.61-3.52v-12.78h3.97v12.77c0,.82.11,1.55.33,2.21s.54,1.22.96,1.69c.42.47.93.83,1.54,1.09.6.26,1.29.38,2.06.38Z"/>
    <path class="st3" d="M270.07,368.21h-3.59c-.68,0-1.17-.27-1.48-.8l-4.49-6.84c-.17-.26-.35-.44-.55-.55-.2-.11-.5-.16-.89-.16h-1.7v8.34h-3.97v-21.35h6.51c1.45,0,2.69.15,3.73.45,1.04.3,1.89.72,2.55,1.26.66.54,1.15,1.19,1.47,1.94.32.75.47,1.58.47,2.49,0,.72-.11,1.4-.32,2.04s-.52,1.22-.91,1.74c-.4.52-.89.98-1.48,1.37-.59.39-1.25.7-2,.93.26.15.49.32.71.52s.41.44.59.72l5.34,7.88ZM259.85,357.02c.75,0,1.4-.09,1.96-.28s1.01-.45,1.37-.78c.36-.33.63-.72.8-1.17.18-.45.27-.95.27-1.49,0-1.08-.36-1.91-1.07-2.49-.71-.58-1.8-.87-3.27-.87h-2.54v7.09h2.48Z"/>
    <path class="st3" d="M290.67,368.21h-3.07c-.34,0-.62-.09-.84-.26-.22-.17-.38-.39-.49-.64l-1.59-4.35h-8.84l-1.59,4.35c-.08.23-.23.43-.46.62s-.51.28-.84.28h-3.1l8.4-21.35h4.04l8.39,21.35ZM283.66,360.15l-2.6-7.1c-.13-.32-.26-.69-.4-1.12-.14-.43-.28-.9-.41-1.4-.13.5-.26.97-.4,1.41-.14.44-.27.82-.4,1.14l-2.58,7.07h6.79Z"/>
    <path class="st3" d="M309.85,357.51v8.64c-1.08.8-2.24,1.38-3.46,1.75-1.23.37-2.54.55-3.93.55-1.74,0-3.32-.27-4.73-.81-1.41-.54-2.62-1.29-3.62-2.26-1-.96-1.77-2.12-2.31-3.45s-.81-2.8-.81-4.38.26-3.08.78-4.41,1.26-2.49,2.22-3.45c.96-.96,2.12-1.71,3.49-2.24,1.37-.53,2.9-.8,4.61-.8.87,0,1.67.07,2.43.21.75.14,1.45.33,2.1.57.64.24,1.23.53,1.76.88s1.02.72,1.46,1.14l-1.14,1.8c-.18.29-.41.46-.69.52-.28.06-.6,0-.93-.21-.32-.19-.65-.37-.97-.56-.32-.19-.69-.35-1.09-.49-.4-.14-.85-.25-1.34-.34-.5-.09-1.07-.13-1.72-.13-1.05,0-2.01.18-2.86.53-.85.35-1.58.86-2.18,1.52-.6.66-1.06,1.45-1.39,2.38-.33.93-.49,1.96-.49,3.1,0,1.22.17,2.31.52,3.27s.84,1.77,1.48,2.44c.63.66,1.4,1.17,2.3,1.52.89.35,1.89.52,3,.52.79,0,1.49-.08,2.11-.25.62-.17,1.23-.39,1.82-.68v-3.87h-2.69c-.26,0-.46-.07-.6-.21-.14-.14-.21-.32-.21-.52v-2.24h7.09Z"/>
    <path class="st3" d="M317.67,350.02v5.92h7.47v3.06h-7.47v6.04h9.48v3.17h-13.46v-21.35h13.46v3.16h-9.48Z"/>
    <path class="st3" d="M350.57,357.54c0,1.56-.26,3.01-.78,4.35s-1.25,2.49-2.19,3.46-2.08,1.73-3.41,2.28c-1.33.55-2.8.82-4.43.82s-3.09-.27-4.41-.82-2.47-1.31-3.42-2.28-1.69-2.13-2.21-3.46-.78-2.78-.78-4.35.26-3.01.78-4.35,1.26-2.49,2.21-3.46c.95-.97,2.09-1.73,3.42-2.28s2.8-.82,4.41-.82c1.08,0,2.1.13,3.06.38.96.25,1.83.61,2.63,1.06s1.51,1.01,2.15,1.67c.64.65,1.17,1.39,1.62,2.19.44.81.78,1.68,1.01,2.63s.35,1.94.35,2.98ZM346.51,357.54c0-1.17-.16-2.22-.47-3.15-.32-.93-.76-1.72-1.34-2.37-.58-.65-1.29-1.15-2.12-1.49s-1.77-.52-2.81-.52-1.98.17-2.81.52c-.83.34-1.54.84-2.13,1.49-.59.65-1.04,1.44-1.35,2.37-.32.93-.47,1.98-.47,3.15s.16,2.22.47,3.15c.31.93.77,1.72,1.35,2.36s1.29,1.14,2.13,1.48c.83.34,1.77.52,2.81.52s1.98-.17,2.81-.52,1.54-.84,2.12-1.48c.58-.64,1.03-1.43,1.34-2.36.31-.93.47-1.98.47-3.15Z"/>
    <path class="st3" d="M362.66,365.01c.77,0,1.45-.13,2.06-.38.6-.26,1.11-.62,1.53-1.08.41-.46.73-1.02.95-1.68.22-.66.33-1.4.33-2.21v-12.78h3.97v12.78c0,1.27-.2,2.44-.61,3.52-.41,1.08-.99,2.01-1.76,2.79-.76.78-1.69,1.39-2.78,1.83s-2.32.66-3.69.66-2.61-.22-3.71-.66-2.02-1.05-2.78-1.83-1.35-1.71-1.76-2.79-.61-2.25-.61-3.52v-12.78h3.97v12.77c0,.82.11,1.55.33,2.21s.54,1.22.96,1.69c.42.47.93.83,1.54,1.09.6.26,1.29.38,2.06.38Z"/>
    <path class="st3" d="M387.36,350.75c-.12.21-.24.36-.38.45s-.3.14-.49.14c-.21,0-.43-.08-.67-.23-.24-.15-.53-.32-.86-.51s-.73-.36-1.17-.51c-.45-.15-.98-.23-1.59-.23-.55,0-1.03.07-1.45.2s-.76.32-1.04.55c-.28.24-.49.52-.63.85-.14.33-.21.69-.21,1.09,0,.5.14.92.42,1.26.28.33.65.62,1.11.86.46.24.99.45,1.58.63.59.19,1.2.39,1.82.6.62.21,1.23.46,1.82.74.59.28,1.12.63,1.58,1.06.46.43.83.95,1.11,1.57s.42,1.37.42,2.26c0,.96-.16,1.87-.49,2.71-.33.84-.81,1.57-1.45,2.2-.64.63-1.41,1.12-2.33,1.48-.92.36-1.96.54-3.14.54-.68,0-1.35-.07-2.01-.2-.66-.13-1.29-.32-1.9-.57-.6-.25-1.17-.54-1.7-.89s-1-.73-1.42-1.15l1.17-1.9c.1-.14.23-.25.38-.35.16-.09.32-.14.5-.14.25,0,.51.1.8.3.29.2.62.43,1.02.67.39.25.85.47,1.38.67.53.2,1.16.3,1.9.3,1.13,0,2.01-.27,2.63-.8.62-.54.93-1.31.93-2.31,0-.56-.14-1.02-.42-1.37s-.65-.65-1.11-.89-.99-.45-1.58-.61c-.59-.17-1.19-.35-1.8-.55-.61-.2-1.21-.43-1.8-.71-.59-.28-1.12-.63-1.58-1.08-.46-.44-.83-1-1.11-1.66-.28-.66-.42-1.48-.42-2.46,0-.78.16-1.54.46-2.27.31-.74.76-1.39,1.35-1.96.59-.57,1.32-1.03,2.18-1.37.87-.34,1.86-.52,2.98-.52,1.26,0,2.42.2,3.48.59,1.06.39,1.97.94,2.72,1.65l-.99,1.88Z"/>
    <path class="st3" d="M255.82,384.11h-6.44v18.08h-3.97v-18.08h-6.44v-3.26h16.84v3.26Z"/>
    <path class="st3" d="M275.29,402.19h-3.59c-.68,0-1.17-.27-1.48-.8l-4.49-6.84c-.17-.26-.35-.44-.55-.55-.2-.11-.5-.16-.89-.16h-1.7v8.34h-3.97v-21.35h6.51c1.45,0,2.69.15,3.73.45,1.04.3,1.89.72,2.55,1.26.66.54,1.15,1.19,1.47,1.94.32.75.47,1.58.47,2.49,0,.72-.11,1.4-.32,2.04s-.52,1.22-.91,1.74c-.4.52-.89.98-1.48,1.37-.59.39-1.25.7-2,.93.26.15.49.32.71.52s.41.44.59.72l5.34,7.88ZM265.08,391c.75,0,1.4-.09,1.96-.28s1.01-.45,1.37-.78c.36-.33.63-.72.8-1.17.18-.45.27-.95.27-1.49,0-1.08-.36-1.91-1.07-2.49-.71-.58-1.8-.87-3.27-.87h-2.54v7.09h2.48Z"/>
    <path class="st3" d="M286.02,398.99c.77,0,1.45-.13,2.06-.38.6-.26,1.11-.62,1.53-1.08.41-.46.73-1.02.95-1.68.22-.66.33-1.4.33-2.21v-12.78h3.97v12.78c0,1.27-.2,2.44-.61,3.52-.41,1.08-.99,2.01-1.76,2.79-.76.78-1.69,1.39-2.78,1.83s-2.32.66-3.69.66-2.61-.22-3.71-.66-2.02-1.05-2.78-1.83-1.35-1.71-1.76-2.79-.61-2.25-.61-3.52v-12.78h3.97v12.77c0,.82.11,1.55.33,2.21s.54,1.22.96,1.69c.42.47.93.83,1.54,1.09.6.26,1.29.38,2.06.38Z"/>
    <path class="st3" d="M314.27,384.11h-6.44v18.08h-3.97v-18.08h-6.44v-3.26h16.84v3.26Z"/>
    <path class="st3" d="M335.07,380.85v21.35h-3.99v-9.33h-10.02v9.33h-3.99v-21.35h3.99v9.18h10.02v-9.18h3.99Z"/>
  </g>
  <g>
    <path class="st4" d="M309.07,186.59c-1.26,1.36-2.65,2.6-4.14,3.7h4.13c13.39,0,24.28,11.39,24.28,25.39v39.11c.06,1.09-.76,2.03-1.85,2.11h-11.1v-9.25c0-1.02-.83-1.85-1.85-1.85s-1.85.83-1.85,1.85v9.25h-57.36v-9.25c0-1.02-.83-1.85-1.85-1.85s-1.85.83-1.85,1.85v9.25h-11.1c-1.08-.09-1.9-1.02-1.85-2.11v-39.11c0-14,10.89-25.39,24.27-25.39h4.14c-1.5-1.1-2.88-2.34-4.14-3.7-15.44,0-27.96,13.03-27.96,29.09v39.11c-.06,3.13,2.42,5.72,5.55,5.81h86.96c3.13-.09,5.61-2.68,5.55-5.81v-39.11c0-16.06-12.52-29.09-27.96-29.09Z"/>
    <path class="st4" d="M288,192.14c13.8,0,24.98-11.18,24.98-24.98s-11.18-24.98-24.98-24.98-24.98,11.18-24.98,24.98,11.18,24.98,24.98,24.98ZM288,145.88c11.75,0,21.28,9.53,21.28,21.28s-9.53,21.28-21.28,21.28-21.28-9.53-21.28-21.28,9.53-21.28,21.28-21.28Z"/>
    <path class="st4" d="M308.35,239.32c.81,0,1.58-.34,2.14-.93l14.52-15.31c4.89-5.27,4.89-13.43,0-18.7-4.38-4.7-11.63-5.23-16.65-1.23-4.66-3.73-11.32-3.57-15.79.39,1.23.42,2.28,1.26,2.95,2.38,1.49-1.14,3.31-1.75,5.18-1.76,2.4.01,4.69,1.02,6.32,2.78.74.74,1.94.74,2.68,0,3.22-3.49,8.67-3.71,12.16-.49.17.16.33.32.49.49,3.56,3.84,3.56,9.76,0,13.6l-13.99,14.73-7.31-7.7c-.47,1.2-1.35,2.19-2.5,2.78l7.67,8.05c.56.59,1.33.92,2.14.93Z"/>
    <path class="st4" d="M300.86,214.56c-.22-.66-.79-1.14-1.48-1.24l-4.77-.73-2.16-4.63c-.32-.63-.97-1.03-1.67-1.03h0c-.72,0-1.37.41-1.67,1.06l-2.16,4.63-4.77.73c-1.01.16-1.7,1.1-1.55,2.11.06.38.23.73.5,1.01l3.52,3.6-.83,5.11c-.16,1.01.52,1.96,1.53,2.12.41.07.83,0,1.19-.21l4.25-2.39,4.25,2.35c.89.49,2.02.17,2.51-.73.2-.36.27-.78.21-1.19l-.83-5.11,3.52-3.6c.49-.5.65-1.22.43-1.88ZM293.62,218.12c-.41.42-.6,1.01-.5,1.59l.37,2.27-1.85-1c-.56-.31-1.24-.31-1.79,0l-1.85,1,.37-2.27c.1-.58-.09-1.17-.5-1.59l-1.65-1.69,2.19-.33c.63-.08,1.17-.47,1.44-1.04l.93-1.92.93,1.92c.26.56.79.95,1.4,1.05l2.19.33-1.67,1.68Z"/>
  </g>
  <g>
    <path class="st2" d="M204.68,310.15h6.32c-1.18,7.5-7.2,12.7-15.18,12.7-8.86,0-15.35-6.49-15.35-15.35s6.5-15.35,15.35-15.35c7.97,0,13.99,5.2,15.18,12.7h-6.32c-1-4.25-4.43-7.09-8.86-7.09-5.31,0-9.15,4.13-9.15,9.74s3.84,9.74,9.15,9.74c4.43,0,7.85-2.89,8.86-7.09Z"/>
    <path class="st2" d="M213.66,322.26l12.1-29.52h8.86l12.1,29.52h-6.38l-2.42-5.9h-15.59l-2.42,5.9h-6.26ZM235.74,311.04l-5.31-12.99h-.59l-5.31,12.99h11.22Z"/>
    <path class="st2" d="M258.83,301.89v20.37h-5.9v-29.52h5.31l18.3,20.37v-20.37h5.9v29.52h-5.31l-18.31-20.37Z"/>
    <path class="st2" d="M321.42,307.5c0,8.5-6.5,14.76-15.35,14.76h-14.76v-29.52h14.76c8.86,0,15.35,6.2,15.35,14.76ZM297.21,316.95h8.86c5.31,0,9.15-3.96,9.15-9.45s-3.84-9.45-9.15-9.45h-8.86v18.89Z"/>
    <path class="st2" d="M358.03,307.5c0,8.86-6.5,15.35-15.35,15.35s-15.35-6.49-15.35-15.35,6.5-15.35,15.35-15.35,15.35,6.5,15.35,15.35ZM351.83,307.5c0-5.61-3.84-9.74-9.15-9.74s-9.15,4.13-9.15,9.74,3.84,9.74,9.15,9.74,9.15-4.13,9.15-9.74Z"/>
    <path class="st2" d="M365.42,292.74h21.26c5.31,0,8.86,3.54,8.86,8.86,0,4.72-3.07,8.03-7.74,8.5.41.47.83,1,1.06,1.42l6.67,10.75h-6.67l-7.5-12.1h-10.04v12.1h-5.9v-29.52ZM386.67,304.84c1.77,0,2.95-1.18,2.95-2.95v-.89c0-1.77-1.18-2.95-2.95-2.95h-15.35v6.79h15.35Z"/>
  </g>
</svg>