<?xml version="1.0" encoding="UTF-8"?>
<svg id="Layer_1" xmlns="http://www.w3.org/2000/svg" xmlns:xlink="http://www.w3.org/1999/xlink" version="1.1" viewBox="0 0 576 576">
  <!-- Generator: Adobe Illustrator 30.2.1, SVG Export Plug-In . SVG Version: 2.1.1 Build 1)  -->
  <defs>
    <style>
      .st0 {
        fill: url(#linear-gradient2);
        opacity: .3;
      }

      .st1 {
        fill: url(#linear-gradient);
      }

      .st2 {
        fill: none;
        stroke: url(#linear-gradient1);
        stroke-miterlimit: 10;
        stroke-width: 17.27px;
      }

      .st3 {
        fill: #e9b250;
      }

      .st4 {
        fill: #fff;
      }

      .st5 {
        fill: #eab151;
      }
    </style>
    <linearGradient id="linear-gradient" x1="18.99" y1="288" x2="557.01" y2="288" gradientUnits="userSpaceOnUse">
      <stop offset="0" stop-color="#e9b250"/>
      <stop offset=".05" stop-color="#c09749"/>
      <stop offset=".1" stop-color="#9c7f43"/>
      <stop offset=".15" stop-color="#7b6a3e"/>
      <stop offset=".21" stop-color="#605839"/>
      <stop offset=".28" stop-color="#4a4a36"/>
      <stop offset=".36" stop-color="#393f33"/>
      <stop offset=".47" stop-color="#2d3731"/>
      <stop offset=".61" stop-color="#263330"/>
      <stop offset="1" stop-color="#253230"/>
    </linearGradient>
    <linearGradient id="linear-gradient1" x1="4.89" y1="-1632.83" x2="560.17" y2="-1632.83" gradientTransform="translate(570.53 -1344.83) rotate(-180)" xlink:href="#linear-gradient"/>
    <linearGradient id="linear-gradient2" x1="32.4" y1="-1632.83" x2="532.66" y2="-1632.83" gradientTransform="translate(570.53 -1344.83) rotate(-180)" xlink:href="#linear-gradient"/>
  </defs>
  <path class="st1" d="M410.58,524.17h-245.15c-8.52,0-16.4-4.55-20.66-11.93L22.19,299.93c-4.26-7.38-4.26-16.48,0-23.86L144.76,63.76c4.26-7.38,12.14-11.93,20.66-11.93h245.15c8.52,0,16.4,4.55,20.66,11.93l122.58,212.31c4.26,7.38,4.26,16.48,0,23.86l-122.58,212.31c-4.26,7.38-12.14,11.93-20.66,11.93Z"/>
  <path class="st2" d="M165.42,524.17h245.15c8.52,0,16.4-4.55,20.66-11.93l122.58-212.31c4.26-7.38,4.26-16.48,0-23.86l-122.58-212.31c-4.26-7.38-12.14-11.93-20.66-11.93h-245.15c-8.52,0-16.4,4.55-20.66,11.93L22.19,276.07c-4.26,7.38-4.26,16.48,0,23.86l122.58,212.31c4.26,7.38,12.14,11.93,20.66,11.93Z"/>
  <path class="st0" d="M409.52,70.43c2.53,0,4.88,1.36,6.15,3.55l121.52,210.47c1.26,2.19,1.26,4.91,0,7.1l-121.52,210.47c-1.26,2.19-3.62,3.55-6.15,3.55h-243.04c-2.53,0-4.88-1.36-6.15-3.55l-121.52-210.48c-1.26-2.19-1.26-4.91,0-7.1l121.52-210.47c1.26-2.19,3.62-3.55,6.15-3.55h243.04Z"/>
  <g>
    <path class="st3" d="M94,304.49v6.72h16.94v5.26h-16.94v6.72h22.79v5.26h-28.63v-29.21h28.63v5.26h-22.79Z"/>
    <path class="st3" d="M139.11,311.5h.41l9.11-12.27h5.26v29.21h-5.84v-20.45h-.12s-.58,1.87-1.64,3.27l-4.09,5.49h-5.84l-4.09-5.49c-1.05-1.4-1.64-3.27-1.64-3.27h-.12v20.45h-5.84v-29.21h5.26l9.17,12.27Z"/>
    <path class="st3" d="M168.5,328.44h-5.84v-29.21h21.03c5.26,0,8.76,3.5,8.76,8.76s-3.51,8.47-8.76,8.47h-15.19v11.98ZM168.5,311.21h15.19c1.75,0,2.92-1.17,2.92-2.92v-.88c0-1.75-1.17-2.92-2.92-2.92h-15.19v6.72Z"/>
    <path class="st3" d="M227.81,313.84c0,8.76-6.43,15.19-15.19,15.19s-15.19-6.43-15.19-15.19,6.43-15.19,15.19-15.19,15.19,6.43,15.19,15.19ZM221.68,313.84c0-5.55-3.8-9.64-9.06-9.64s-9.06,4.09-9.06,9.64,3.8,9.64,9.06,9.64,9.06-4.09,9.06-9.64Z"/>
    <path class="st3" d="M241.31,320.85h.06s.64-3.51,2.16-7.07l3.86-8.71h5.84l3.8,8.71c1.58,3.51,2.22,7.07,2.28,7.07l2.51-21.62h5.73l-3.51,29.21h-6.13l-5.2-11.74c-1.81-4.03-2.34-6.37-2.34-6.37h-.12s-.53,2.34-2.34,6.37l-5.2,11.74h-6.14l-3.51-29.21h5.73l2.51,21.62Z"/>
    <path class="st3" d="M280.11,304.49v6.72h16.94v5.26h-16.94v6.72h22.79v5.26h-28.63v-29.21h28.63v5.26h-22.79Z"/>
    <path class="st3" d="M310.79,299.23h21.03c5.26,0,8.76,3.5,8.76,8.76,0,4.67-3.04,7.95-7.65,8.41.41.47.82.99,1.05,1.4l6.6,10.63h-6.6l-7.42-11.98h-9.93v11.98h-5.84v-29.21ZM331.82,311.21c1.75,0,2.92-1.17,2.92-2.92v-.88c0-1.75-1.17-2.92-2.92-2.92h-15.19v6.72h15.19Z"/>
    <path class="st3" d="M362.62,311.5h.41l9.11-12.27h5.26v29.21h-5.84v-20.45h-.12s-.58,1.87-1.64,3.27l-4.09,5.49h-5.84l-4.09-5.49c-1.05-1.4-1.64-3.27-1.64-3.27h-.12v20.45h-5.84v-29.21h5.26l9.17,12.27Z"/>
    <path class="st3" d="M392.01,304.49v6.72h16.94v5.26h-16.94v6.72h22.79v5.26h-28.63v-29.21h28.63v5.26h-22.79Z"/>
    <path class="st3" d="M428.53,308.29v20.16h-5.84v-29.21h5.26l18.11,20.16v-20.16h5.84v29.21h-5.26l-18.11-20.16Z"/>
    <path class="st3" d="M458.62,299.23h29.21v5.26h-11.69v23.96h-5.84v-23.96h-11.68v-5.26Z"/>
  </g>
  <g>
    <path class="st4" d="M212.88,365.57c0,1.55-.26,2.97-.77,4.27-.52,1.29-1.24,2.41-2.18,3.35-.93.93-2.06,1.66-3.37,2.18-1.31.52-2.78.77-4.38.77h-8.05v-21.12h8.05c1.61,0,3.07.26,4.38.78,1.31.52,2.44,1.25,3.37,2.18.94.93,1.66,2.04,2.18,3.34.52,1.29.77,2.72.77,4.27ZM208.85,365.57c0-1.16-.15-2.2-.46-3.12-.31-.92-.75-1.7-1.33-2.34-.58-.64-1.28-1.13-2.1-1.47-.82-.34-1.75-.51-2.78-.51h-4.1v14.87h4.1c1.03,0,1.96-.17,2.78-.51s1.52-.83,2.1-1.47c.58-.64,1.02-1.42,1.33-2.34.31-.92.46-1.96.46-3.12Z"/>
    <path class="st4" d="M220.28,376.13h-3.94v-21.12h3.94v21.12Z"/>
    <path class="st4" d="M236.25,358.85c-.12.2-.24.35-.37.45s-.29.14-.49.14c-.2,0-.43-.07-.67-.23-.24-.15-.52-.32-.85-.5s-.72-.35-1.16-.5c-.44-.15-.97-.23-1.57-.23-.55,0-1.02.07-1.43.2s-.75.31-1.03.55-.48.51-.62.84c-.14.33-.2.68-.2,1.07,0,.5.14.91.42,1.24.28.33.65.61,1.1.85.46.23.98.44,1.56.63.58.19,1.18.38,1.8.59s1.21.45,1.8.73c.58.28,1.11.63,1.56,1.05s.83.94,1.1,1.56c.28.61.42,1.36.42,2.24,0,.95-.16,1.85-.49,2.68-.33.83-.8,1.56-1.43,2.18s-1.39,1.11-2.3,1.46c-.91.36-1.94.53-3.11.53-.67,0-1.33-.07-1.99-.2-.65-.13-1.28-.32-1.88-.56s-1.16-.54-1.69-.88c-.53-.34-.99-.72-1.4-1.14l1.15-1.88c.1-.14.22-.25.38-.34s.32-.14.5-.14c.24,0,.51.1.79.3s.62.42,1.01.66c.39.24.84.47,1.37.66.52.2,1.15.3,1.88.3,1.12,0,1.99-.26,2.6-.8s.92-1.29.92-2.29c0-.56-.14-1.01-.42-1.36-.28-.35-.65-.65-1.1-.88-.46-.24-.98-.44-1.56-.61s-1.18-.35-1.78-.54c-.6-.19-1.2-.43-1.78-.7-.58-.27-1.11-.63-1.56-1.07-.46-.44-.83-.99-1.1-1.64s-.42-1.47-.42-2.43c0-.77.15-1.52.46-2.25.31-.73.75-1.38,1.34-1.94.58-.56,1.3-1.02,2.16-1.36.86-.34,1.84-.51,2.95-.51,1.25,0,2.4.19,3.45.58,1.05.39,1.95.93,2.69,1.64l-.98,1.85Z"/>
    <path class="st4" d="M255.78,358.23h-6.37v17.9h-3.93v-17.9h-6.37v-3.23h16.67v3.23Z"/>
    <path class="st4" d="M275.05,376.13h-3.55c-.67,0-1.16-.26-1.46-.79l-4.44-6.76c-.17-.25-.35-.43-.55-.54s-.49-.16-.88-.16h-1.68v8.25h-3.93v-21.12h6.44c1.43,0,2.66.15,3.69.45,1.03.3,1.87.71,2.53,1.25.66.54,1.14,1.18,1.45,1.92.31.75.47,1.57.47,2.46,0,.71-.11,1.38-.31,2.02-.21.63-.51,1.21-.91,1.72-.39.52-.88.97-1.46,1.36-.58.39-1.24.7-1.98.92.25.15.49.32.7.52.21.2.41.44.58.71l5.29,7.8ZM264.94,365.06c.74,0,1.38-.09,1.94-.28.55-.19,1-.44,1.36-.77.36-.33.62-.71.8-1.16.18-.45.26-.94.26-1.48,0-1.07-.35-1.89-1.06-2.47-.71-.57-1.78-.86-3.24-.86h-2.51v7.01h2.45Z"/>
    <path class="st4" d="M281.29,376.13h-3.94v-21.12h3.94v21.12Z"/>
    <path class="st4" d="M293.28,355c1.38,0,2.57.13,3.55.39.98.26,1.79.64,2.42,1.13.63.49,1.09,1.08,1.38,1.77.29.69.44,1.47.44,2.34,0,.5-.07.97-.22,1.42s-.37.88-.68,1.27-.7.75-1.17,1.07c-.47.32-1.03.59-1.69.82,2.9.65,4.35,2.22,4.35,4.7,0,.9-.17,1.72-.51,2.48-.34.76-.84,1.41-1.49,1.96-.65.55-1.46.98-2.41,1.29-.95.31-2.04.47-3.27.47h-7.98v-21.12h7.28ZM289.94,358.04v6.11h3.13c1.34,0,2.36-.24,3.05-.73s1.03-1.26,1.03-2.32-.31-1.88-.93-2.35c-.62-.47-1.6-.7-2.92-.7h-3.35ZM293.91,373.06c.73,0,1.34-.09,1.84-.26.5-.18.89-.41,1.19-.7.3-.29.51-.63.64-1.02.13-.39.2-.8.2-1.24s-.07-.87-.22-1.23c-.15-.37-.37-.68-.69-.93-.31-.26-.71-.46-1.21-.59s-1.08-.2-1.78-.2h-3.96v6.19h3.97Z"/>
    <path class="st4" d="M313.75,372.96c.76,0,1.44-.13,2.04-.38.6-.25,1.1-.61,1.51-1.07.41-.46.72-1.01.94-1.67.22-.65.33-1.38.33-2.19v-12.65h3.93v12.65c0,1.26-.2,2.42-.61,3.48-.4,1.07-.98,1.99-1.74,2.76-.75.77-1.67,1.38-2.75,1.81s-2.3.65-3.65.65-2.59-.22-3.67-.65-2-1.04-2.75-1.81c-.76-.77-1.33-1.69-1.74-2.76s-.61-2.23-.61-3.48v-12.65h3.93v12.64c0,.81.11,1.54.33,2.19.22.65.54,1.21.95,1.67s.92.82,1.52,1.07c.6.25,1.28.38,2.04.38Z"/>
    <path class="st4" d="M341.69,358.23h-6.37v17.9h-3.93v-17.9h-6.37v-3.23h16.67v3.23Z"/>
    <path class="st4" d="M348.41,358.13v5.86h7.39v3.02h-7.39v5.97h9.38v3.14h-13.32v-21.12h13.32v3.13h-9.38Z"/>
    <path class="st4" d="M380.02,365.57c0,1.55-.26,2.97-.77,4.27-.52,1.29-1.24,2.41-2.18,3.35s-2.06,1.66-3.37,2.18c-1.32.52-2.78.77-4.38.77h-8.05v-21.12h8.05c1.61,0,3.07.26,4.38.78,1.31.52,2.44,1.25,3.37,2.18.93.93,1.66,2.04,2.18,3.34.52,1.29.77,2.72.77,4.27ZM375.99,365.57c0-1.16-.15-2.2-.46-3.12s-.75-1.7-1.33-2.34c-.58-.64-1.28-1.13-2.1-1.47-.82-.34-1.75-.51-2.78-.51h-4.11v14.87h4.11c1.03,0,1.96-.17,2.78-.51.82-.34,1.52-.83,2.1-1.47.58-.64,1.02-1.42,1.33-2.34s.46-1.96.46-3.12Z"/>
    <path class="st4" d="M217.05,406.51v3.24h-12.37v-21.12h3.93v17.88h8.44Z"/>
    <path class="st4" d="M223.8,391.75v5.86h7.39v3.02h-7.39v5.97h9.38v3.14h-13.32v-21.12h13.32v3.13h-9.38Z"/>
    <path class="st4" d="M254.75,409.75h-3.04c-.34,0-.62-.09-.83-.26-.21-.17-.38-.38-.48-.64l-1.58-4.31h-8.75l-1.58,4.31c-.08.22-.23.43-.45.61-.22.19-.5.28-.83.28h-3.07l8.31-21.12h4l8.3,21.12ZM247.81,401.78l-2.57-7.03c-.13-.31-.26-.68-.39-1.11-.14-.43-.27-.89-.41-1.39-.13.5-.26.96-.39,1.4-.14.43-.27.81-.39,1.13l-2.56,7h6.72Z"/>
    <path class="st4" d="M275.7,399.19c0,1.55-.26,2.97-.77,4.27-.52,1.29-1.24,2.41-2.18,3.35-.93.93-2.06,1.66-3.37,2.18-1.31.52-2.78.77-4.38.77h-8.05v-21.12h8.05c1.61,0,3.07.26,4.38.78,1.31.52,2.44,1.25,3.37,2.18.94.93,1.66,2.04,2.18,3.34.52,1.29.77,2.72.77,4.27ZM271.67,399.19c0-1.16-.15-2.2-.46-3.12-.31-.92-.75-1.7-1.33-2.34-.58-.64-1.28-1.13-2.1-1.47-.82-.34-1.75-.51-2.78-.51h-4.1v14.87h4.1c1.03,0,1.96-.17,2.78-.51s1.52-.83,2.1-1.47c.58-.64,1.02-1.42,1.33-2.34.31-.92.46-1.96.46-3.12Z"/>
    <path class="st4" d="M283.11,391.75v5.86h7.39v3.02h-7.39v5.97h9.38v3.14h-13.32v-21.12h13.32v3.13h-9.38Z"/>
    <path class="st4" d="M312.45,409.75h-3.55c-.67,0-1.16-.26-1.46-.79l-4.44-6.76c-.17-.25-.35-.43-.55-.54-.2-.11-.5-.16-.88-.16h-1.68v8.25h-3.93v-21.12h6.44c1.43,0,2.66.15,3.69.45,1.03.3,1.87.71,2.53,1.25.66.54,1.14,1.18,1.45,1.92.31.75.47,1.57.47,2.46,0,.71-.11,1.38-.31,2.02-.21.63-.51,1.21-.91,1.72s-.88.97-1.46,1.36c-.58.39-1.24.7-1.98.92.25.15.49.32.7.52s.41.44.58.71l5.29,7.8ZM302.34,398.68c.74,0,1.39-.09,1.94-.28s1-.44,1.36-.77c.36-.33.62-.71.8-1.16s.26-.94.26-1.48c0-1.07-.35-1.89-1.06-2.47-.71-.57-1.78-.86-3.24-.86h-2.51v7.01h2.45Z"/>
    <path class="st4" d="M326,392.47c-.12.2-.24.35-.37.45s-.29.14-.49.14c-.21,0-.43-.07-.66-.23-.24-.15-.52-.32-.85-.5s-.72-.35-1.16-.5c-.44-.15-.97-.23-1.57-.23-.55,0-1.02.07-1.43.2s-.75.31-1.03.55-.48.51-.62.84c-.14.33-.2.68-.2,1.07,0,.5.14.91.42,1.24.28.33.65.61,1.1.85.46.23.98.44,1.56.63.58.19,1.18.38,1.8.59.61.21,1.21.45,1.8.73s1.11.63,1.56,1.05c.46.42.82.94,1.1,1.56.28.61.42,1.36.42,2.24,0,.95-.16,1.85-.49,2.68s-.8,1.56-1.43,2.18c-.63.62-1.4,1.11-2.3,1.46-.91.36-1.94.53-3.11.53-.67,0-1.33-.07-1.99-.2-.65-.13-1.28-.32-1.88-.56-.6-.24-1.16-.54-1.69-.88-.53-.34-.99-.72-1.4-1.14l1.15-1.88c.1-.14.22-.25.38-.34.16-.09.32-.14.5-.14.24,0,.51.1.79.3s.62.42,1.01.66c.39.24.84.47,1.37.66.52.2,1.15.3,1.88.3,1.12,0,1.99-.26,2.6-.8.61-.53.92-1.29.92-2.29,0-.56-.14-1.01-.42-1.36-.28-.35-.65-.65-1.1-.88-.46-.24-.98-.44-1.56-.61-.58-.17-1.18-.35-1.78-.54-.6-.19-1.2-.43-1.78-.7s-1.11-.63-1.56-1.07c-.46-.44-.82-.99-1.1-1.64s-.42-1.47-.42-2.43c0-.77.15-1.52.46-2.25.31-.73.75-1.38,1.34-1.94.58-.56,1.3-1.02,2.16-1.36s1.84-.51,2.95-.51c1.25,0,2.4.19,3.45.58,1.05.39,1.95.93,2.69,1.64l-.98,1.85Z"/>
    <path class="st4" d="M348.58,388.63v21.12h-3.94v-9.23h-9.92v9.23h-3.94v-21.12h3.94v9.09h9.92v-9.09h3.94Z"/>
    <path class="st4" d="M357.23,409.75h-3.94v-21.12h3.94v21.12Z"/>
    <path class="st4" d="M368.81,388.63c1.41,0,2.63.17,3.67.5,1.03.33,1.88.79,2.56,1.39.67.59,1.17,1.3,1.5,2.13.33.83.49,1.73.49,2.72s-.17,1.96-.51,2.81c-.34.85-.85,1.58-1.53,2.2-.68.61-1.54,1.09-2.56,1.43s-2.23.51-3.6.51h-2.94v7.44h-3.93v-21.12h6.87ZM368.81,399.25c.72,0,1.35-.09,1.88-.27.54-.18.98-.44,1.34-.77.36-.34.62-.74.8-1.23.18-.48.26-1.02.26-1.61s-.09-1.08-.26-1.53-.44-.85-.79-1.17c-.35-.32-.79-.57-1.33-.74-.54-.17-1.17-.26-1.9-.26h-2.94v7.58h2.94Z"/>
  </g>
  <g>
    <path class="st5" d="M297.57,243.67c-1.14,0-2.06.92-2.06,2.06v7.17c0,1.14.92,2.06,2.06,2.06s2.06-.92,2.06-2.06v-7.17c0-1.14-.92-2.06-2.06-2.06Z"/>
    <path class="st5" d="M288,152.01c1.14,0,2.06-.92,2.06-2.06v-21.22c0-1.14-.92-2.06-2.06-2.06s-2.06.92-2.06,2.06v21.22c0,1.14.92,2.06,2.06,2.06Z"/>
    <path class="st5" d="M314.28,157.07l11.65-17.74c.61-.96.32-2.24-.64-2.85-.94-.59-2.18-.34-2.8.58l-11.65,17.74c-.61.96-.32,2.24.64,2.85.94.59,2.18.34,2.8-.58h0Z"/>
    <path class="st5" d="M301.29,152.96c1.08.36,2.25-.22,2.61-1.3,0,0,0,0,0,0l4.47-13.42c.35-1.09-.25-2.25-1.34-2.59-1.07-.34-2.21.23-2.58,1.29l-4.47,13.42c-.36,1.08.22,2.25,1.3,2.61h0Z"/>
    <path class="st5" d="M323.1,162.68c.78.83,2.09.86,2.92.08l10.28-9.72c.83-.78.86-2.09.08-2.92s-2.09-.86-2.92-.08l-10.28,9.72c-.83.78-.86,2.09-.08,2.92,0,0,0,0,0,0Z"/>
    <path class="st5" d="M253.51,137.07c-.61-.96-1.88-1.25-2.85-.64-.96.61-1.25,1.88-.64,2.85.01.02.03.04.04.06l11.65,17.74c.64.94,1.93,1.18,2.87.54.92-.63,1.17-1.87.58-2.8l-11.65-17.74Z"/>
    <path class="st5" d="M272.1,151.65c.38,1.07,1.56,1.64,2.63,1.26,1.05-.37,1.61-1.5,1.28-2.56l-4.47-13.42c-.37-1.08-1.55-1.64-2.63-1.27-1.06.37-1.63,1.51-1.29,2.58l4.47,13.42Z"/>
    <path class="st5" d="M249.98,162.76c.83.78,2.13.75,2.92-.08.78-.83.75-2.13-.08-2.92h0l-10.28-9.72c-.86-.75-2.16-.65-2.91.21-.7.81-.66,2.02.08,2.79l10.27,9.72Z"/>
    <path class="st5" d="M357.85,214.21c0-3.54-2.86-6.42-6.4-6.43-1,0-1.99.23-2.89.68-1.43-3.24-5.21-4.72-8.45-3.29-.38.17-.75.37-1.09.61-2.16-2.8-6.19-3.32-8.99-1.15-.43.33-.82.72-1.15,1.15-2.9-2.03-6.9-1.32-8.93,1.58-.76,1.08-1.16,2.37-1.16,3.69v6.87c-3.03,1.56-4.93,4.69-4.92,8.1v3.71c.3,6.68,3.52,11.16,6.11,14.75,1.51,2.09,2.8,3.89,2.8,5.26v5.42h-.12c-1.14,0-2.06.92-2.06,2.06v7.07c0,1.14.92,2.06,2.06,2.06h29.84c1.14,0,2.06-.92,2.06-2.06v-7.07c0-1.14-.92-2.06-2.06-2.06h-.12v-5.42c.23-1.97.83-3.89,1.78-5.63.22-.5.45-1.02.68-1.56,1.84-4.06,2.86-8.45,2.99-12.91v-15.43ZM351.42,211.91c1.27,0,2.3,1.03,2.3,2.3v9.46c.03,1.27-.98,2.33-2.25,2.36-1.27.03-2.33-.98-2.36-2.25,0-.03,0-.07,0-.1v-9.46c0-1.27,1.03-2.3,2.3-2.3h0ZM342.69,208.75c1.27,0,2.3,1.03,2.3,2.3v9.46c0,1.27-1.03,2.3-2.31,2.3-1.27,0-2.3-1.03-2.3-2.3v-9.46c0-1.27,1.03-2.3,2.3-2.3h0ZM333.96,207.42c1.27,0,2.3,1.03,2.3,2.3v7.17s-.08-.01-.12-.01h-4.48v-7.15c0-1.27,1.03-2.3,2.29-2.3ZM325.22,208.75c1.26,0,2.28,1,2.31,2.25v5.87h-4.5s-.07,0-.11,0v-5.83c0-1.27,1.03-2.3,2.3-2.3h0ZM350.45,262.24h-25.71v-2.95h25.71v2.95ZM351.07,240.94c-.22.52-.44,1.02-.66,1.51-1.15,2.59-2.14,4.83-2.14,7.3v5.42h-21.35v-5.42c0-2.7-1.66-5.01-3.58-7.67-2.39-3.31-5.09-7.07-5.33-12.43v-3.62c.01-2.77,2.25-5.01,5.02-5.02h13.11c.07,0,.12.05.12.12v.37c0,2.48-2,4.49-4.48,4.49h-3.4c-1.14,0-2.06.92-2.06,2.06s.92,2.06,2.06,2.06h1.83c2.55,2.13,4,5.29,3.97,8.61,0,1.14.92,2.06,2.06,2.06s2.06-.92,2.06-2.06c.02-3.37-1.07-6.64-3.1-9.33,1.65-.73,3.03-1.95,3.95-3.5,1.91,1.26,4.34,1.41,6.38.38,1.38,3.14,4.98,4.64,8.18,3.4-.14,3.9-1.05,7.73-2.66,11.27h0Z"/>
    <path class="st5" d="M309.98,179.3c0-3.54-2.86-6.42-6.4-6.43-1,0-1.99.23-2.89.68-1.43-3.24-5.21-4.71-8.45-3.29-.38.17-.75.37-1.09.61-2.16-2.8-6.19-3.32-8.99-1.15-.43.33-.82.72-1.15,1.15-2.9-2.03-6.9-1.32-8.93,1.58-.76,1.08-1.16,2.37-1.16,3.69v6.87c-3.03,1.56-4.93,4.69-4.92,8.1v3.71c.3,6.68,3.52,11.16,6.11,14.75,1.5,2.09,2.8,3.89,2.8,5.26v5.42h-.12c-1.14,0-2.06.92-2.06,2.06h0v41.99c0,1.14.92,2.06,2.06,2.06h29.84c1.14,0,2.06-.92,2.06-2.06v-41.99c0-1.14-.92-2.06-2.06-2.06h-.12v-5.42c.23-1.97.83-3.89,1.78-5.63.22-.5.45-1.02.68-1.56,1.84-4.06,2.86-8.45,2.99-12.91v-15.43ZM303.55,177c1.27,0,2.3,1.03,2.3,2.3v9.46c.03,1.27-.98,2.33-2.25,2.36-1.27.03-2.33-.98-2.36-2.25,0-.03,0-.07,0-.1v-9.46c0-1.27,1.03-2.31,2.3-2.31h0,0ZM294.82,173.84c1.27,0,2.3,1.03,2.3,2.3v9.46c0,1.27-1.03,2.3-2.31,2.3-1.27,0-2.3-1.03-2.3-2.3v-9.47c0-1.27,1.03-2.3,2.3-2.3h0ZM286.09,172.51c1.27,0,2.3,1.03,2.3,2.3v7.17h-4.6v-7.17c0-1.27,1.02-2.3,2.29-2.31h0ZM277.35,173.84c.6,0,1.19.24,1.62.66.42.42.67.99.69,1.59v5.88h-4.5s-.07,0-.11,0v-5.83c0-1.27,1.03-2.3,2.3-2.3ZM302.58,262.24h-25.71v-37.86h25.71v37.86ZM303.2,206.03c-.22.52-.44,1.02-.66,1.51-1.15,2.59-2.14,4.83-2.14,7.3v5.42h-21.35v-5.42c0-2.7-1.66-5.01-3.58-7.67-2.39-3.31-5.09-7.07-5.33-12.43v-3.62c0-2.77,2.25-5.01,5.02-5.02h13.11c.07,0,.12.05.12.12v.37c0,2.48-2,4.49-4.48,4.49h-3.4c-1.14,0-2.06.92-2.06,2.06s.92,2.06,2.06,2.06h1.83c2.55,2.13,4.01,5.29,3.97,8.61,0,1.14.92,2.06,2.06,2.07,1.14,0,2.06-.92,2.07-2.06h0c.02-3.37-1.07-6.65-3.1-9.34,1.65-.72,3.03-1.95,3.95-3.49,1.91,1.26,4.34,1.41,6.38.38,1.38,3.14,4.98,4.64,8.18,3.4-.14,3.9-1.05,7.72-2.67,11.27h0Z"/>
    <path class="st5" d="M257.2,217.92v-6.87c0-3.54-2.86-6.42-6.4-6.43-1.32,0-2.61.4-3.69,1.16-2.17-2.8-6.19-3.31-8.99-1.15-.43.33-.82.72-1.15,1.15-2.91-2.03-6.9-1.31-8.93,1.59-.24.34-.44.71-.61,1.09-3.17-1.59-7.02-.31-8.61,2.86-.45.9-.68,1.88-.68,2.88v15.49c.14,4.44,1.16,8.82,3,12.86.23.54.46,1.05.68,1.55.95,1.74,1.56,3.65,1.78,5.63v5.42h-.12c-1.14,0-2.06.92-2.06,2.06v7.07c0,1.14.92,2.06,2.06,2.06h29.84c1.14,0,2.06-.92,2.06-2.06v-7.07c0-1.14-.92-2.06-2.06-2.06h-.12v-5.42c0-1.37,1.3-3.17,2.8-5.26,2.59-3.59,5.81-8.06,6.11-14.84v-3.62c.01-3.41-1.89-6.54-4.91-8.1h0ZM250.78,208.75c1.27,0,2.3,1.03,2.3,2.3v5.83s-.07,0-.11,0h-4.5v-5.87c.02-1.25,1.05-2.26,2.31-2.25h0ZM239.74,209.72c-.03-1.27.98-2.33,2.25-2.36,1.27-.03,2.33.98,2.36,2.25,0,.03,0,.07,0,.1v7.15h-4.48s-.08.01-.12.01v-7.17ZM231,211.06c0-1.27,1.03-2.3,2.3-2.3s2.3,1.03,2.3,2.3v9.46c0,1.27-1.03,2.3-2.3,2.3s-2.3-1.03-2.3-2.3v-9.46ZM222.27,214.21c.03-1.27,1.08-2.28,2.36-2.25,1.23.03,2.22,1.02,2.25,2.25v9.46c.03,1.27-.98,2.33-2.25,2.36-1.27.03-2.33-.98-2.36-2.25,0-.03,0-.07,0-.1v-9.46ZM251.26,262.24h-25.71v-2.95h25.71v2.95ZM252.66,242.07c-1.92,2.67-3.58,4.97-3.58,7.67v5.42h-21.35v-5.42c0-2.48-.99-4.71-2.14-7.3-.21-.49-.44-.99-.66-1.5-1.62-3.55-2.52-7.38-2.67-11.28,3.2,1.24,6.8-.26,8.18-3.4,2.04,1.03,4.48.88,6.38-.38.92,1.55,2.3,2.77,3.95,3.5-2.03,2.68-3.12,5.96-3.1,9.33,0,1.14.92,2.06,2.06,2.06s2.06-.92,2.06-2.06c-.04-3.32,1.42-6.48,3.97-8.61h1.83c1.14,0,2.06-.92,2.06-2.06s-.92-2.06-2.06-2.06h-3.4c-2.48,0-4.48-2.02-4.48-4.49v-.37c0-.07.05-.12.12-.12h13.11c2.77.01,5.01,2.25,5.02,5.02v3.53c-.24,5.45-2.94,9.21-5.33,12.52h0Z"/>
  </g>
</svg>