<?xml version="1.0" encoding="UTF-8"?>
<svg id="Layer_1" xmlns="http://www.w3.org/2000/svg" xmlns:xlink="http://www.w3.org/1999/xlink" version="1.1" viewBox="0 0 576 576">
  <!-- Generator: Adobe Illustrator 30.2.1, SVG Export Plug-In . SVG Version: 2.1.1 Build 1)  -->
  <defs>
    <style>
      .st0 {
        fill: url(#linear-gradient2);
        opacity: .3;
      }

      .st1 {
        fill: url(#linear-gradient);
      }

      .st2 {
        fill: none;
        stroke: url(#linear-gradient1);
        stroke-miterlimit: 10;
        stroke-width: 17.27px;
      }

      .st3 {
        fill: #e9b250;
      }

      .st4 {
        fill: #fff;
      }

      .st5 {
        fill: #eab151;
      }
    </style>
    <linearGradient id="linear-gradient" x1="16.58" y1="288" x2="559.42" y2="288" gradientUnits="userSpaceOnUse">
      <stop offset="0" stop-color="#e9b250"/>
      <stop offset=".05" stop-color="#c09749"/>
      <stop offset=".1" stop-color="#9c7f43"/>
      <stop offset=".15" stop-color="#7b6a3e"/>
      <stop offset=".21" stop-color="#605839"/>
      <stop offset=".28" stop-color="#4a4a36"/>
      <stop offset=".36" stop-color="#393f33"/>
      <stop offset=".47" stop-color="#2d3731"/>
      <stop offset=".61" stop-color="#263330"/>
      <stop offset="1" stop-color="#253230"/>
    </linearGradient>
    <linearGradient id="linear-gradient1" x1="2.48" y1="-1632.83" x2="562.59" y2="-1632.83" gradientTransform="translate(570.53 -1344.83) rotate(-180)" xlink:href="#linear-gradient"/>
    <linearGradient id="linear-gradient2" x1="30.19" y1="-1632.83" x2="534.88" y2="-1632.83" gradientTransform="translate(570.53 -1344.83) rotate(-180)" xlink:href="#linear-gradient"/>
  </defs>
  <path class="st1" d="M411.78,49.74h-247.56c-8.52,0-16.4,4.55-20.66,11.93L19.77,276.07c-4.26,7.38-4.26,16.48,0,23.86l123.78,214.4c4.26,7.38,12.14,11.93,20.66,11.93h247.56c8.52,0,16.4-4.55,20.66-11.93l123.78-214.4c4.26-7.38,4.26-16.48,0-23.86l-123.78-214.4c-4.26-7.38-12.14-11.93-20.66-11.93Z"/>
  <path class="st2" d="M164.22,526.26h247.56c8.52,0,16.4-4.55,20.66-11.93l123.78-214.4c4.26-7.38,4.26-16.48,0-23.86l-123.78-214.4c-4.26-7.38-12.14-11.93-20.66-11.93h-247.56c-8.52,0-16.4,4.55-20.66,11.93L19.77,276.07c-4.26,7.38-4.26,16.48,0,23.86l123.78,214.4c4.26,7.38,12.14,11.93,20.66,11.93Z"/>
  <path class="st0" d="M410.59,68.5c2.55,0,4.93,1.37,6.2,3.58l122.59,212.34c1.28,2.21,1.28,4.95,0,7.16l-122.59,212.34c-1.28,2.21-3.65,3.58-6.2,3.58h-245.19c-2.55,0-4.93-1.37-6.2-3.58l-122.59-212.34c-1.27-2.21-1.27-4.95,0-7.16l122.59-212.34c1.28-2.21,3.65-3.58,6.2-3.58h245.19Z"/>
  <g>
    <path class="st4" d="M236.83,366.23c.77,0,1.45-.13,2.06-.38.6-.26,1.11-.61,1.53-1.08.41-.46.73-1.02.95-1.68s.33-1.4.33-2.21v-12.76h3.96v12.76c0,1.27-.2,2.44-.61,3.52-.41,1.08-.99,2-1.75,2.79-.76.78-1.69,1.39-2.78,1.83s-2.32.66-3.68.66-2.61-.22-3.7-.66-2.02-1.05-2.78-1.83c-.76-.78-1.35-1.71-1.75-2.79s-.61-2.25-.61-3.52v-12.76h3.96v12.75c0,.82.11,1.55.33,2.21s.54,1.22.96,1.69c.42.47.93.83,1.53,1.08.6.26,1.29.38,2.06.38Z"/>
    <path class="st4" d="M268.11,348.12v21.31h-2.03c-.31,0-.58-.05-.79-.15-.21-.1-.42-.28-.61-.52l-11.13-14.21c.06.65.09,1.25.09,1.8v13.09h-3.49v-21.31h2.08c.17,0,.31,0,.43.02.12.01.23.04.32.09.09.04.18.11.27.19.09.08.19.19.29.33l11.17,14.27c-.03-.34-.05-.68-.07-1.02-.02-.33-.03-.64-.03-.93v-12.95h3.49Z"/>
    <path class="st4" d="M276.83,369.43h-3.98v-21.31h3.98v21.31Z"/>
    <path class="st4" d="M285.57,351.27v6.31h7.99v3.17h-7.99v8.68h-3.98v-21.31h13.44v3.15h-9.46Z"/>
    <path class="st4" d="M302.25,369.43h-3.98v-21.31h3.98v21.31Z"/>
    <path class="st4" d="M310.99,351.27v5.91h7.46v3.05h-7.46v6.03h9.46v3.17h-13.44v-21.31h13.44v3.15h-9.46Z"/>
    <path class="st4" d="M342.88,358.78c0,1.56-.26,3-.78,4.3-.52,1.31-1.25,2.43-2.2,3.38s-2.08,1.68-3.4,2.2c-1.33.52-2.8.78-4.42.78h-8.12v-21.31h8.12c1.62,0,3.1.26,4.42.79,1.33.53,2.46,1.26,3.4,2.2.94.94,1.68,2.06,2.2,3.37.52,1.31.78,2.74.78,4.3ZM338.81,358.78c0-1.17-.15-2.22-.46-3.15-.31-.93-.76-1.71-1.34-2.36s-1.29-1.14-2.12-1.48-1.77-.52-2.81-.52h-4.14v15h4.14c1.04,0,1.98-.17,2.81-.52s1.54-.84,2.12-1.48,1.03-1.43,1.34-2.36c.31-.93.46-1.98.46-3.15Z"/>
    <path class="st4" d="M198.85,392.7c0,1.56-.26,3.01-.77,4.34-.52,1.33-1.25,2.48-2.19,3.46-.94.97-2.08,1.73-3.4,2.28-1.33.55-2.8.82-4.42.82s-3.08-.27-4.41-.82-2.46-1.3-3.41-2.28c-.95-.97-1.68-2.12-2.2-3.46s-.78-2.78-.78-4.34.26-3.01.78-4.34,1.25-2.48,2.2-3.46c.95-.97,2.09-1.73,3.41-2.28s2.79-.82,4.41-.82c1.08,0,2.1.13,3.05.38.95.25,1.83.6,2.62,1.06.8.46,1.51,1.01,2.14,1.67.63.65,1.17,1.38,1.61,2.19.44.81.78,1.68,1.01,2.62s.35,1.94.35,2.98ZM194.8,392.7c0-1.17-.16-2.22-.47-3.15-.31-.93-.76-1.72-1.34-2.37-.58-.65-1.28-1.14-2.11-1.49s-1.77-.52-2.81-.52-1.98.17-2.81.52c-.83.34-1.54.84-2.12,1.49-.59.65-1.03,1.44-1.35,2.37-.31.93-.47,1.98-.47,3.15s.16,2.22.47,3.15.76,1.71,1.35,2.36c.58.64,1.29,1.14,2.12,1.48.83.34,1.77.52,2.81.52s1.98-.17,2.81-.52,1.54-.84,2.11-1.48,1.03-1.43,1.34-2.36c.31-.93.47-1.98.47-3.15Z"/>
    <path class="st4" d="M218.99,403.35h-3.58c-.68,0-1.17-.27-1.47-.8l-4.48-6.82c-.17-.26-.35-.44-.55-.55s-.5-.16-.89-.16h-1.69v8.33h-3.96v-21.31h6.5c1.44,0,2.68.15,3.72.45s1.89.72,2.55,1.26c.66.54,1.15,1.19,1.47,1.94s.47,1.58.47,2.48c0,.72-.11,1.4-.32,2.03s-.52,1.22-.91,1.74c-.4.52-.89.98-1.47,1.37-.58.39-1.25.7-2,.93.26.15.49.32.71.52.22.2.41.44.59.71l5.34,7.87ZM208.79,392.18c.75,0,1.4-.09,1.95-.28.55-.19,1.01-.44,1.37-.77.36-.33.63-.72.8-1.17.18-.45.27-.95.27-1.49,0-1.08-.36-1.91-1.07-2.49s-1.8-.87-3.26-.87h-2.53v7.07h2.48Z"/>
    <path class="st4" d="M238.57,392.67v8.62c-1.08.8-2.23,1.38-3.46,1.75-1.22.37-2.53.55-3.93.55-1.74,0-3.31-.27-4.72-.81-1.41-.54-2.61-1.29-3.61-2.25-1-.96-1.77-2.11-2.31-3.45-.54-1.34-.81-2.79-.81-4.38s.26-3.07.78-4.41,1.26-2.49,2.22-3.45c.96-.96,2.12-1.71,3.49-2.24,1.37-.53,2.9-.8,4.6-.8.86,0,1.67.07,2.42.21.75.14,1.45.33,2.09.57s1.23.53,1.76.88,1.02.72,1.46,1.13l-1.14,1.8c-.18.28-.41.46-.69.52-.29.06-.59,0-.93-.21-.32-.19-.65-.37-.97-.56-.32-.19-.69-.35-1.08-.49-.4-.14-.84-.25-1.34-.34-.5-.09-1.07-.13-1.72-.13-1.05,0-2,.18-2.85.53-.85.35-1.57.86-2.17,1.52-.6.66-1.06,1.45-1.39,2.37s-.49,1.96-.49,3.09c0,1.22.17,2.31.52,3.26.35.96.84,1.77,1.47,2.43.63.66,1.4,1.17,2.29,1.52.89.35,1.89.52,2.99.52.79,0,1.49-.08,2.11-.25.62-.17,1.22-.39,1.81-.68v-3.86h-2.68c-.26,0-.45-.07-.6-.21-.14-.14-.21-.32-.21-.52v-2.24h7.07Z"/>
    <path class="st4" d="M260.41,403.35h-3.07c-.34,0-.62-.09-.84-.26-.22-.17-.38-.39-.49-.64l-1.59-4.35h-8.83l-1.59,4.35c-.08.23-.23.43-.46.62-.23.19-.51.28-.84.28h-3.1l8.39-21.31h4.04l8.37,21.31ZM253.41,395.31l-2.59-7.09c-.13-.31-.26-.69-.4-1.12-.14-.43-.28-.9-.41-1.4-.13.5-.26.97-.4,1.41-.14.44-.27.82-.4,1.14l-2.58,7.06h6.78Z"/>
    <path class="st4" d="M280.59,382.04v21.31h-2.03c-.31,0-.58-.05-.79-.15-.21-.1-.42-.28-.61-.52l-11.13-14.21c.06.65.09,1.25.09,1.8v13.09h-3.49v-21.31h2.08c.17,0,.31,0,.43.02.12.01.23.04.32.09.09.04.18.11.27.19.09.08.19.19.29.33l11.17,14.27c-.03-.34-.05-.68-.07-1.02-.02-.33-.03-.64-.03-.93v-12.95h3.49Z"/>
    <path class="st4" d="M289.31,403.35h-3.98v-21.31h3.98v21.31Z"/>
    <path class="st4" d="M308.75,383.5c0,.45-.13.86-.38,1.24l-10.94,15.44h11.07v3.17h-16.21v-1.56c0-.2.03-.39.1-.57.07-.18.16-.35.27-.51l10.96-15.52h-10.64v-3.15h15.77v1.46Z"/>
    <path class="st4" d="M330.18,403.35h-3.07c-.34,0-.62-.09-.84-.26-.22-.17-.38-.39-.49-.64l-1.59-4.35h-8.83l-1.59,4.35c-.08.23-.23.43-.46.62-.23.19-.51.28-.84.28h-3.1l8.39-21.31h4.04l8.37,21.31ZM323.18,395.31l-2.59-7.09c-.13-.31-.26-.69-.4-1.12-.14-.43-.28-.9-.41-1.4-.13.5-.26.97-.4,1.41-.14.44-.27.82-.4,1.14l-2.58,7.06h6.78Z"/>
    <path class="st4" d="M345.2,385.3h-6.43v18.05h-3.96v-18.05h-6.43v-3.26h16.82v3.26Z"/>
    <path class="st4" d="M351.97,403.35h-3.98v-21.31h3.98v21.31Z"/>
    <path class="st4" d="M377.06,392.7c0,1.56-.26,3.01-.77,4.34-.52,1.33-1.25,2.48-2.19,3.46-.94.97-2.08,1.73-3.4,2.28-1.33.55-2.8.82-4.42.82s-3.08-.27-4.41-.82-2.46-1.3-3.41-2.28c-.95-.97-1.68-2.12-2.2-3.46s-.78-2.78-.78-4.34.26-3.01.78-4.34,1.25-2.48,2.2-3.46c.95-.97,2.09-1.73,3.41-2.28s2.79-.82,4.41-.82c1.08,0,2.1.13,3.05.38.95.25,1.83.6,2.62,1.06.8.46,1.51,1.01,2.14,1.67.63.65,1.17,1.38,1.61,2.19.44.81.78,1.68,1.01,2.62s.35,1.94.35,2.98ZM373,392.7c0-1.17-.16-2.22-.47-3.15-.31-.93-.76-1.72-1.34-2.37-.58-.65-1.28-1.14-2.11-1.49s-1.77-.52-2.81-.52-1.98.17-2.81.52c-.83.34-1.54.84-2.12,1.49-.59.65-1.03,1.44-1.35,2.37-.31.93-.47,1.98-.47,3.15s.16,2.22.47,3.15.76,1.71,1.35,2.36c.58.64,1.29,1.14,2.12,1.48.83.34,1.77.52,2.81.52s1.98-.17,2.81-.52,1.54-.84,2.11-1.48,1.03-1.43,1.34-2.36c.31-.93.47-1.98.47-3.15Z"/>
    <path class="st4" d="M398.51,382.04v21.31h-2.03c-.31,0-.58-.05-.79-.15-.21-.1-.42-.28-.61-.52l-11.13-14.21c.06.65.09,1.25.09,1.8v13.09h-3.49v-21.31h2.08c.17,0,.31,0,.43.02.12.01.23.04.32.09.09.04.18.11.27.19.09.08.19.19.29.33l11.17,14.27c-.03-.34-.05-.68-.07-1.02-.02-.33-.03-.64-.03-.93v-12.95h3.49Z"/>
  </g>
  <g>
    <path class="st5" d="M274.19,159.75c.35.7,1.23,1.23,1.93,1.23.35,0,.7-.18,1.23-.35,1.06-.7,1.41-2.11.88-3.17l-5.45-9.5c-.7-1.06-2.11-1.41-3.17-.88-1.06.7-1.41,2.11-.88,3.17l5.45,9.5Z"/>
    <path class="st5" d="M287.91,157.64c1.23,0,2.29-1.06,2.29-2.29v-10.9c0-1.23-1.06-2.29-2.29-2.29s-2.29,1.06-2.29,2.29v10.9c0,1.41,1.06,2.29,2.29,2.29Z"/>
    <path class="st5" d="M298.47,160.63c.35.18.7.35,1.23.35.88,0,1.58-.35,1.93-1.23l5.45-9.5c.7-1.06.18-2.46-.88-3.17s-2.46-.18-3.17.88l-5.45,9.5c-.53,1.06-.18,2.46.88,3.17Z"/>
    <path class="st5" d="M233.04,226.23c0-1.23-1.06-2.29-2.29-2.29s-2.29,1.06-2.29,2.29v7.74h-6.33v-4.92c0-12.49,10.2-22.69,22.69-22.69,5.1,0,9.85,1.58,13.54,4.57.88-1.23,1.93-2.46,2.99-3.52-2.11-1.58-4.57-2.99-7.21-3.87,4.57-2.99,7.74-8.27,7.74-14.25,0-9.5-7.74-17.06-17.06-17.06s-17.06,7.74-17.06,17.06c0,5.98,2.99,11.26,7.74,14.25-10.55,3.87-18.12,13.72-18.12,25.5v7.21c0,1.23,1.06,2.29,2.29,2.29h30.78v-4.57h-17.41v-7.74ZM232.16,189.12c0-6.86,5.63-12.49,12.49-12.49s12.49,5.63,12.49,12.49-5.63,12.49-12.49,12.49c-6.86.18-12.49-5.45-12.49-12.49Z"/>
    <path class="st5" d="M340.5,203.54c4.57-2.99,7.74-8.27,7.74-14.25,0-9.5-7.74-17.06-17.06-17.06s-17.06,7.74-17.06,17.06c0,5.98,2.99,11.26,7.74,14.25-2.64.88-4.92,2.29-7.21,3.87,1.06,1.06,2.11,2.29,2.99,3.52,3.87-2.81,8.44-4.57,13.54-4.57,12.49,0,22.69,10.2,22.69,22.69v4.92h-6.33v-7.74c0-1.23-1.06-2.29-2.29-2.29s-2.29,1.06-2.29,2.29v7.74h-17.41v4.57h30.78c1.23,0,2.29-1.06,2.29-2.29v-7.21c-.18-11.78-7.74-21.63-18.12-25.5h0ZM318.69,189.12c0-6.86,5.63-12.49,12.49-12.49s12.49,5.63,12.49,12.49-5.63,12.49-12.49,12.49c-6.86.18-12.49-5.45-12.49-12.49Z"/>
    <path class="st5" d="M298.29,202.49c5.98-3.52,10.03-10.03,10.03-17.59,0-11.26-9.15-20.4-20.4-20.4s-20.4,9.15-20.4,20.4c0,7.39,4.05,14.07,10.03,17.59-13.02,4.4-22.34,16.53-22.34,31.13v8.79c0,1.23,1.06,2.29,2.29,2.29h13.02l-5.1-4.57h-5.63v-6.51c0-15.48,12.66-28.14,28.14-28.14s28.14,12.66,28.14,28.14v6.51h-5.63l-5.1,4.57h13.02c1.23,0,2.29-1.06,2.29-2.29v-8.79c0-14.42-9.32-26.73-22.34-31.13h0ZM272.08,185.07c0-8.62,7.04-15.83,15.65-15.83s15.65,7.04,15.65,15.83-7.04,15.83-15.65,15.83-15.65-7.21-15.65-15.83Z"/>
    <path class="st5" d="M299.7,243.64l9.15-8.27c.7-.53.88-1.76.7-2.46-.35-.88-1.06-1.58-2.11-1.58l-12.31-1.41-5.1-11.26c-.35-.88-1.23-1.41-2.29-1.41-.88,0-1.76.53-2.29,1.41l-5.1,11.26-12.31,1.41c-.88.18-1.76.88-2.11,1.58-.35.88,0,1.93.7,2.46l9.15,8.27-2.46,12.14c-.18.88.18,1.93.88,2.46s1.76.53,2.64.18l10.73-6.16,10.73,6.16c.35.18.7.35,1.23.35s1.06-.18,1.41-.53c.7-.53,1.06-1.58.88-2.46l-2.11-12.14ZM294.95,243.29l1.76,8.62-7.56-4.4c-.7-.35-1.58-.35-2.29,0l-7.74,4.22,1.76-8.62c.18-.88-.18-1.58-.7-2.11l-6.51-5.98,8.79-1.06c.88-.18,1.58-.53,1.93-1.41l3.69-8.09,3.69,8.09c.35.7,1.06,1.23,1.93,1.41l8.79,1.06-6.51,5.98c-1.06.53-1.23,1.41-1.06,2.29h0Z"/>
  </g>
  <g>
    <path class="st3" d="M121.47,291.56h5.89v24.17h17.68v5.3h-23.58v-29.47Z"/>
    <path class="st3" d="M157.72,296.86v6.78h17.09v5.3h-17.09v6.78h22.99v5.3h-28.88v-29.47h28.88v5.3h-22.99Z"/>
    <path class="st3" d="M186.02,321.03l12.08-29.47h8.84l12.08,29.47h-6.37l-2.42-5.89h-15.56l-2.42,5.89h-6.25ZM208.06,309.83l-5.3-12.97h-.59l-5.3,12.97h11.2Z"/>
    <path class="st3" d="M255.28,306.29c0,8.49-6.48,14.74-15.33,14.74h-14.74v-29.47h14.74c8.84,0,15.33,6.19,15.33,14.74ZM231.11,315.72h8.84c5.3,0,9.14-3.95,9.14-9.43s-3.83-9.43-9.14-9.43h-8.84v18.86Z"/>
    <path class="st3" d="M268.55,296.86v6.78h17.09v5.3h-17.09v6.78h22.99v5.3h-28.88v-29.47h28.88v5.3h-22.99Z"/>
    <path class="st3" d="M299.5,291.56h21.22c5.31,0,8.84,3.54,8.84,8.84,0,4.72-3.06,8.02-7.72,8.49.41.47.83,1,1.06,1.41l6.66,10.73h-6.66l-7.49-12.08h-10.02v12.08h-5.89v-29.47ZM320.71,303.64c1.77,0,2.95-1.18,2.95-2.95v-.88c0-1.77-1.18-2.95-2.95-2.95h-15.33v6.78h15.33Z"/>
    <path class="st3" d="M358.15,312.01c0-2.36-2.59-3.36-8.49-3.36-9.31,0-13.32-2.48-13.32-8.43s4.72-9.25,13.56-9.25c8.13,0,13.56,3.77,13.56,9.43h-5.89c0-2.48-3.06-4.13-7.66-4.13-5.01,0-7.66,1.36-7.66,3.95,0,2.24,2.36,3.12,7.96,3.12,9.73,0,13.85,2.65,13.85,8.67s-4.95,9.61-14.15,9.61c-8.49,0-14.15-3.77-14.15-9.43h5.89c0,2.48,3.3,4.13,8.25,4.13,5.36,0,8.25-1.53,8.25-4.3Z"/>
    <path class="st3" d="M377.31,303.64h17.68v-12.08h5.89v29.47h-5.89v-12.08h-17.68v12.08h-5.89v-29.47h5.89v12.08Z"/>
    <path class="st3" d="M409.73,321.03v-29.47h5.89v29.47h-5.89Z"/>
    <path class="st3" d="M430.36,321.03h-5.89v-29.47h21.22c5.31,0,8.84,3.54,8.84,8.84s-3.54,8.55-8.84,8.55h-15.33v12.08ZM430.36,303.64h15.33c1.77,0,2.95-1.18,2.95-2.95v-.88c0-1.77-1.18-2.95-2.95-2.95h-15.33v6.78Z"/>
  </g>
</svg>