<?xml version="1.0" encoding="UTF-8"?>
<svg id="Layer_1" xmlns="http://www.w3.org/2000/svg" xmlns:xlink="http://www.w3.org/1999/xlink" version="1.1" viewBox="0 0 576 576">
  <!-- Generator: Adobe Illustrator 30.2.1, SVG Export Plug-In . SVG Version: 2.1.1 Build 1)  -->
  <defs>
    <style>
      .st0 {
        fill: url(#linear-gradient2);
        opacity: .3;
      }

      .st1 {
        fill: url(#linear-gradient);
      }

      .st2 {
        fill: none;
        stroke: url(#linear-gradient1);
        stroke-miterlimit: 10;
        stroke-width: 17.27px;
      }

      .st3 {
        fill: #e9b250;
      }

      .st4 {
        fill: #fff;
      }

      .st5 {
        fill: #eab151;
      }
    </style>
    <linearGradient id="linear-gradient" x1="17.07" y1="288" x2="558.93" y2="288" gradientUnits="userSpaceOnUse">
      <stop offset="0" stop-color="#e9b250"/>
      <stop offset=".05" stop-color="#c09749"/>
      <stop offset=".1" stop-color="#9c7f43"/>
      <stop offset=".15" stop-color="#7b6a3e"/>
      <stop offset=".21" stop-color="#605839"/>
      <stop offset=".28" stop-color="#4a4a36"/>
      <stop offset=".36" stop-color="#393f33"/>
      <stop offset=".47" stop-color="#2d3731"/>
      <stop offset=".61" stop-color="#263330"/>
      <stop offset="1" stop-color="#253230"/>
    </linearGradient>
    <linearGradient id="linear-gradient1" x1="2.96" y1="-1632.83" x2="562.1" y2="-1632.83" gradientTransform="translate(570.53 -1344.83) rotate(-180)" xlink:href="#linear-gradient"/>
    <linearGradient id="linear-gradient2" x1="30.63" y1="-1632.83" x2="534.43" y2="-1632.83" gradientTransform="translate(570.53 -1344.83) rotate(-180)" xlink:href="#linear-gradient"/>
  </defs>
  <path class="st1" d="M411.54,525.83h-247.08c-8.52,0-16.4-4.55-20.66-11.93L20.26,299.93c-4.26-7.38-4.26-16.48,0-23.86L143.8,62.1c4.26-7.38,12.14-11.93,20.66-11.93h247.08c8.52,0,16.4,4.55,20.66,11.93l123.54,213.97c4.26,7.38,4.26,16.48,0,23.86l-123.54,213.97c-4.26,7.38-12.14,11.93-20.66,11.93Z"/>
  <path class="st2" d="M164.46,525.83h247.08c8.52,0,16.4-4.55,20.66-11.93l123.54-213.97c4.26-7.38,4.26-16.48,0-23.86l-123.54-213.97c-4.26-7.38-12.14-11.93-20.66-11.93h-247.08c-8.52,0-16.4,4.55-20.66,11.93L20.26,276.07c-4.26,7.38-4.26,16.48,0,23.86l123.54,213.97c4.26,7.38,12.14,11.93,20.66,11.93Z"/>
  <path class="st0" d="M410.38,68.89c2.55,0,4.92,1.37,6.19,3.57l122.38,211.96c1.27,2.2,1.27,4.94,0,7.15l-122.38,211.96c-1.27,2.2-3.65,3.57-6.19,3.57h-244.75c-2.55,0-4.92-1.37-6.19-3.57l-122.38-211.96c-1.27-2.2-1.27-4.94,0-7.15l122.37-211.96c1.27-2.2,3.65-3.57,6.19-3.57h244.75Z"/>
  <g>
    <path class="st4" d="M239.3,361.3c-.12.21-.24.36-.37.45s-.3.14-.49.14c-.21,0-.43-.08-.67-.23-.24-.15-.53-.32-.86-.51s-.72-.36-1.17-.51c-.45-.15-.97-.23-1.58-.23-.55,0-1.03.07-1.44.2s-.76.32-1.04.55-.49.52-.62.85c-.14.33-.21.69-.21,1.08,0,.5.14.92.42,1.25.28.33.65.62,1.11.85.46.24.99.45,1.57.63.59.19,1.19.38,1.81.6.62.21,1.22.46,1.81.74s1.11.63,1.57,1.06c.46.43.83.95,1.11,1.57.28.62.42,1.37.42,2.25,0,.96-.16,1.86-.49,2.7s-.81,1.57-1.44,2.19c-.63.62-1.41,1.11-2.32,1.47-.91.36-1.96.54-3.13.54-.68,0-1.34-.07-2-.2-.66-.13-1.29-.32-1.89-.57-.6-.24-1.17-.54-1.7-.88-.53-.34-1-.73-1.41-1.15l1.16-1.9c.1-.14.23-.25.38-.35.16-.09.32-.14.5-.14.24,0,.51.1.79.3s.62.42,1.02.67c.39.25.85.47,1.38.67.52.2,1.15.3,1.89.3,1.13,0,2-.27,2.62-.8.62-.53.93-1.3.93-2.3,0-.56-.14-1.02-.42-1.37-.28-.35-.65-.65-1.11-.89-.46-.24-.99-.44-1.57-.61-.59-.17-1.19-.35-1.79-.54-.61-.2-1.21-.43-1.79-.71s-1.11-.63-1.57-1.07c-.46-.44-.83-.99-1.11-1.66s-.42-1.48-.42-2.45c0-.77.15-1.53.46-2.27.31-.74.76-1.39,1.35-1.96.59-.57,1.31-1.03,2.18-1.37s1.85-.51,2.97-.51c1.25,0,2.41.2,3.47.59,1.06.39,1.96.94,2.71,1.65l-.99,1.87Z"/>
    <path class="st4" d="M262.05,357.44v21.27h-3.97v-9.3h-9.99v9.3h-3.97v-21.27h3.97v9.15h9.99v-9.15h3.97Z"/>
    <path class="st4" d="M285.01,378.71h-3.06c-.34,0-.62-.09-.84-.26-.21-.17-.38-.38-.49-.64l-1.59-4.34h-8.81l-1.59,4.34c-.08.23-.23.43-.46.62s-.51.28-.84.28h-3.09l8.37-21.27h4.03l8.36,21.27ZM278.03,370.68l-2.59-7.08c-.13-.31-.26-.69-.4-1.12-.14-.43-.27-.9-.41-1.4-.13.5-.26.97-.4,1.41s-.27.82-.4,1.14l-2.57,7.05h6.77Z"/>
    <path class="st4" d="M303.83,378.71h-3.58c-.68,0-1.17-.26-1.47-.79l-4.47-6.81c-.17-.26-.35-.44-.55-.54-.2-.11-.5-.16-.89-.16h-1.69v8.31h-3.96v-21.27h6.49c1.44,0,2.68.15,3.71.45,1.03.3,1.88.72,2.54,1.26.66.54,1.15,1.18,1.46,1.93.31.75.47,1.58.47,2.48,0,.72-.11,1.39-.32,2.03-.21.64-.51,1.22-.91,1.74s-.89.98-1.47,1.37c-.58.39-1.25.7-1.99.93.26.15.49.32.71.52s.41.44.59.71l5.33,7.86ZM293.65,367.56c.75,0,1.4-.09,1.95-.28s1.01-.44,1.37-.77c.36-.33.62-.72.8-1.17s.26-.95.26-1.49c0-1.08-.36-1.91-1.07-2.49-.71-.58-1.8-.87-3.26-.87h-2.53v7.06h2.47Z"/>
    <path class="st4" d="M310.11,360.58v5.9h7.44v3.04h-7.44v6.02h9.45v3.16h-13.42v-21.27h13.42v3.15h-9.45Z"/>
    <path class="st4" d="M341.95,368.07c0,1.56-.26,2.99-.78,4.3-.52,1.3-1.25,2.43-2.19,3.37s-2.07,1.67-3.4,2.19c-1.32.52-2.8.78-4.41.78h-8.11v-21.27h8.11c1.62,0,3.09.26,4.41.79,1.32.53,2.46,1.26,3.4,2.19.94.94,1.67,2.06,2.19,3.36.52,1.3.78,2.74.78,4.3ZM337.89,368.07c0-1.17-.15-2.21-.46-3.14s-.76-1.71-1.34-2.35c-.58-.64-1.29-1.13-2.12-1.48-.83-.34-1.76-.51-2.8-.51h-4.13v14.98h4.13c1.04,0,1.97-.17,2.8-.51.83-.34,1.54-.84,2.12-1.48.58-.64,1.03-1.43,1.34-2.35s.46-1.97.46-3.14Z"/>
    <path class="st4" d="M183.04,412.57h-3.06c-.34,0-.62-.09-.84-.26-.21-.17-.38-.38-.49-.64l-1.59-4.34h-8.81l-1.59,4.34c-.08.23-.23.43-.46.62s-.51.28-.84.28h-3.09l8.37-21.27h4.03l8.36,21.27ZM176.05,404.54l-2.59-7.08c-.13-.31-.26-.69-.4-1.12-.14-.43-.27-.9-.41-1.4-.13.5-.26.97-.4,1.41s-.27.82-.4,1.14l-2.57,7.05h6.77Z"/>
    <path class="st4" d="M199.22,407.55c.22,0,.41.08.57.25l1.56,1.69c-.86,1.07-1.93,1.89-3.19,2.46s-2.77.85-4.54.85c-1.58,0-3-.27-4.26-.81-1.26-.54-2.34-1.29-3.23-2.25-.89-.96-1.58-2.11-2.05-3.44-.48-1.33-.71-2.79-.71-4.37s.25-3.06.76-4.39c.51-1.33,1.23-2.47,2.16-3.43.93-.96,2.03-1.71,3.32-2.24,1.28-.53,2.71-.8,4.27-.8s2.92.26,4.13.76c1.2.51,2.22,1.18,3.07,2l-1.32,1.84c-.08.12-.18.22-.3.31-.12.09-.29.13-.51.13-.15,0-.3-.04-.46-.12-.16-.08-.33-.19-.52-.31s-.4-.26-.65-.4c-.24-.15-.53-.28-.85-.4-.32-.12-.7-.23-1.13-.31-.43-.08-.92-.12-1.48-.12-.95,0-1.82.17-2.61.51-.79.34-1.47.83-2.04,1.47-.57.64-1.01,1.43-1.32,2.35-.31.93-.47,1.98-.47,3.17s.17,2.26.51,3.19c.34.93.8,1.72,1.38,2.35.58.64,1.26,1.13,2.04,1.46.78.34,1.63.51,2.53.51.54,0,1.03-.03,1.46-.09.44-.06.84-.15,1.21-.28.37-.13.72-.29,1.04-.49.33-.2.65-.45.98-.74.1-.09.2-.16.31-.21s.22-.08.34-.08Z"/>
    <path class="st4" d="M218.22,407.55c.22,0,.41.08.57.25l1.56,1.69c-.86,1.07-1.93,1.89-3.19,2.46s-2.77.85-4.54.85c-1.58,0-3-.27-4.26-.81-1.26-.54-2.34-1.29-3.23-2.25-.89-.96-1.58-2.11-2.05-3.44-.48-1.33-.71-2.79-.71-4.37s.25-3.06.76-4.39c.51-1.33,1.23-2.47,2.16-3.43.93-.96,2.03-1.71,3.32-2.24,1.28-.53,2.71-.8,4.27-.8s2.92.26,4.13.76c1.2.51,2.22,1.18,3.07,2l-1.32,1.84c-.08.12-.18.22-.3.31-.12.09-.29.13-.51.13-.15,0-.3-.04-.46-.12-.16-.08-.33-.19-.52-.31s-.4-.26-.65-.4c-.24-.15-.53-.28-.85-.4-.32-.12-.7-.23-1.13-.31-.43-.08-.92-.12-1.48-.12-.95,0-1.82.17-2.61.51-.79.34-1.47.83-2.04,1.47-.57.64-1.01,1.43-1.32,2.35-.31.93-.47,1.98-.47,3.17s.17,2.26.51,3.19c.34.93.8,1.72,1.38,2.35.58.64,1.26,1.13,2.04,1.46.78.34,1.63.51,2.53.51.54,0,1.03-.03,1.46-.09.44-.06.84-.15,1.21-.28.37-.13.72-.29,1.04-.49.33-.2.65-.45.98-.74.1-.09.2-.16.31-.21s.22-.08.34-.08Z"/>
    <path class="st4" d="M242.91,401.93c0,1.56-.26,3-.77,4.33s-1.24,2.48-2.18,3.45-2.07,1.73-3.4,2.27c-1.32.54-2.79.82-4.41.82s-3.08-.27-4.4-.82-2.46-1.3-3.41-2.27-1.68-2.12-2.2-3.45-.78-2.77-.78-4.33.26-3,.78-4.33,1.25-2.48,2.2-3.45,2.08-1.73,3.41-2.27,2.79-.82,4.4-.82c1.08,0,2.09.12,3.04.37.95.25,1.82.6,2.62,1.06.79.46,1.51,1.01,2.14,1.66.63.65,1.17,1.38,1.61,2.18.44.8.78,1.68,1.01,2.62s.35,1.93.35,2.97ZM238.87,401.93c0-1.17-.16-2.21-.47-3.14-.31-.93-.76-1.71-1.34-2.36-.58-.65-1.28-1.14-2.11-1.49-.83-.34-1.76-.51-2.8-.51s-1.97.17-2.8.51c-.83.34-1.53.84-2.12,1.49-.58.65-1.03,1.43-1.35,2.36-.31.93-.47,1.97-.47,3.14s.16,2.21.47,3.14c.31.93.76,1.71,1.35,2.35.58.64,1.29,1.14,2.12,1.48.83.34,1.76.51,2.8.51s1.97-.17,2.8-.51,1.53-.84,2.11-1.48c.58-.64,1.02-1.43,1.34-2.35.31-.93.47-1.97.47-3.14Z"/>
    <path class="st4" d="M254.96,409.38c.76,0,1.45-.13,2.05-.38.6-.25,1.11-.61,1.52-1.07.41-.46.73-1.02.95-1.68.22-.66.33-1.39.33-2.21v-12.74h3.96v12.74c0,1.26-.2,2.43-.61,3.51-.41,1.07-.99,2-1.75,2.78-.76.78-1.68,1.39-2.77,1.82s-2.31.65-3.68.65-2.6-.22-3.69-.65-2.01-1.04-2.77-1.82c-.76-.78-1.34-1.71-1.75-2.78s-.61-2.24-.61-3.51v-12.74h3.96v12.73c0,.81.11,1.55.33,2.21.22.66.54,1.22.96,1.68s.93.83,1.53,1.08c.6.26,1.29.38,2.05.38Z"/>
    <path class="st4" d="M286.18,391.3v21.27h-2.03c-.31,0-.58-.05-.79-.15-.21-.1-.42-.28-.61-.52l-11.11-14.18c.06.65.09,1.25.09,1.79v13.06h-3.49v-21.27h2.07c.17,0,.31,0,.43.02s.23.04.32.09c.09.04.18.11.27.19.09.08.19.19.29.33l11.15,14.24c-.03-.34-.05-.68-.07-1.02-.02-.33-.03-.64-.03-.93v-12.93h3.49Z"/>
    <path class="st4" d="M305.77,394.55h-6.41v18.02h-3.96v-18.02h-6.41v-3.25h16.78v3.25Z"/>
    <path class="st4" d="M324.72,412.57h-3.06c-.34,0-.62-.09-.84-.26-.21-.17-.38-.38-.49-.64l-1.59-4.34h-8.81l-1.59,4.34c-.08.23-.23.43-.46.62s-.51.28-.84.28h-3.09l8.37-21.27h4.03l8.36,21.27ZM317.73,404.54l-2.59-7.08c-.13-.31-.26-.69-.4-1.12-.14-.43-.27-.9-.41-1.4-.13.5-.26.97-.4,1.41s-.27.82-.4,1.14l-2.57,7.05h6.77Z"/>
    <path class="st4" d="M334.25,391.3c1.39,0,2.58.13,3.58.4.99.26,1.8.64,2.43,1.13.63.49,1.1,1.08,1.39,1.78.29.7.44,1.48.44,2.35,0,.5-.07.98-.22,1.43s-.37.88-.68,1.28-.7.76-1.18,1.08c-.48.32-1.04.6-1.7.82,2.92.66,4.38,2.24,4.38,4.74,0,.9-.17,1.74-.51,2.5-.34.76-.84,1.42-1.5,1.98-.66.55-1.47.99-2.43,1.3-.96.31-2.06.47-3.29.47h-8.03v-21.27h7.33ZM330.88,394.36v6.15h3.15c1.35,0,2.38-.25,3.07-.74s1.04-1.27,1.04-2.34-.31-1.9-.94-2.37c-.63-.47-1.61-.71-2.94-.71h-3.37ZM334.89,409.48c.74,0,1.35-.09,1.85-.26.5-.18.9-.41,1.2-.71.3-.29.51-.64.65-1.03.13-.39.2-.81.2-1.25s-.07-.88-.22-1.24c-.15-.37-.38-.68-.69-.94-.31-.26-.72-.46-1.21-.6s-1.09-.21-1.79-.21h-3.99v6.24h4Z"/>
    <path class="st4" d="M350.27,412.57h-3.97v-21.27h3.97v21.27Z"/>
    <path class="st4" d="M367.48,409.3v3.27h-12.46v-21.27h3.96v18.01h8.5Z"/>
    <path class="st4" d="M374.28,412.57h-3.97v-21.27h3.97v21.27Z"/>
    <path class="st4" d="M393.89,394.55h-6.41v18.02h-3.96v-18.02h-6.41v-3.25h16.78v3.25Z"/>
    <path class="st4" d="M405.82,404.33v8.24h-3.94v-8.24l-7.75-13.03h3.49c.34,0,.62.08.82.25.2.17.37.38.51.63l3.88,7.11c.22.42.42.82.6,1.19s.33.75.46,1.12c.13-.37.27-.75.44-1.12.17-.37.36-.77.57-1.19l3.87-7.11c.11-.22.27-.42.49-.6.22-.19.49-.28.82-.28h3.5l-7.75,13.03Z"/>
  </g>
  <g id="_21-Key">
    <path class="st5" d="M355.26,189.91c-4.38-4.38-11.48-4.4-15.89-.06l-20.25,18.78c-2.13-3.45-5.89-5.55-9.95-5.56h-46.71c-6.87-.02-13.45,2.71-18.29,7.58l-5.59,5.59c-2.81-2.4-6.98-2.29-9.66.25l-10.79,10.79c-.91.93-.9,2.42.03,3.33.91.9,2.38.9,3.3,0l10.79-10.79c.93-.89,2.4-.89,3.32,0l30.98,30.98c.92.92.92,2.41,0,3.33l-10.79,10.79c-.93.91-.94,2.4-.03,3.33.91.93,2.4.94,3.33.03.01,0,.02-.02.03-.03l10.79-10.79c2.63-2.65,2.74-6.88.25-9.66l.32-.32c1.33-1.32,3.12-2.06,4.99-2.06h38.18c8.3-.01,16.09-3.99,20.96-10.71l21.77-30.09c3.33-4.49,2.87-10.74-1.08-14.7h0ZM352.54,201.84l-21.78,30.11c-3.99,5.5-10.36,8.75-17.15,8.76h-38.18c-3.12,0-6.11,1.24-8.32,3.44l-.29.29-24.9-24.9,5.56-5.56c3.96-3.98,9.35-6.21,14.97-6.2h46.71c3.9,0,7.06,3.16,7.06,7.06s-3.16,7.06-7.06,7.06h-23.52c-1.3,0-2.35,1.05-2.35,2.35s1.05,2.35,2.35,2.35h23.52c6.49,0,11.75-5.27,11.76-11.76-.02-.45-.06-.9-.14-1.34l21.84-20.26c2.61-2.48,6.7-2.48,9.31,0,2.31,2.32,2.57,5.98.6,8.6h0ZM264.47,188.96c11.39-.03,21.83-6.37,27.1-16.47h17.59c.62,0,1.22-.25,1.66-.69l5.39-5.39,5.39,5.39c.92.92,2.41.92,3.33,0,0,0,0,0,0,0l5.39-5.39,5.39,5.39c.92.92,2.41.92,3.33,0,0,0,0,0,0,0l11.76-11.76c.92-.92.92-2.41,0-3.33,0,0,0,0,0,0l-11.76-11.76c-.44-.44-1.04-.69-1.66-.69h-45.82c-7.8-14.97-26.26-20.79-41.23-12.99-14.97,7.8-20.79,26.26-12.99,41.23,5.27,10.11,15.72,16.45,27.12,16.45ZM264.47,132.51c10.1.03,19.27,5.92,23.5,15.1.38.83,1.22,1.37,2.14,1.37h46.31l9.41,9.41-8.43,8.43-5.39-5.39c-.92-.92-2.41-.92-3.33,0,0,0,0,0,0,0l-5.39,5.39-5.39-5.39c-.92-.92-2.41-.92-3.33,0,0,0,0,0,0,0l-6.37,6.37h-18.08c-.92,0-1.75.53-2.14,1.37-5.96,12.98-21.31,18.68-34.29,12.72-12.98-5.96-18.68-21.31-12.72-34.29,4.22-9.19,13.4-15.08,23.52-15.08ZM255.06,170.15c6.5,0,11.76-5.27,11.76-11.76s-5.27-11.76-11.76-11.76-11.76,5.27-11.76,11.76c0,6.49,5.27,11.75,11.76,11.76ZM255.06,151.33c3.9,0,7.06,3.16,7.06,7.06s-3.16,7.06-7.06,7.06-7.06-3.16-7.06-7.06c0-3.9,3.16-7.05,7.06-7.06Z"/>
  </g>
  <g>
    <path class="st3" d="M165.01,313.91c0,8.83-6.47,15.3-15.3,15.3s-15.3-6.47-15.3-15.3,6.47-15.3,15.3-15.3,15.3,6.47,15.3,15.3ZM158.83,313.91c0-5.59-3.83-9.71-9.12-9.71s-9.12,4.12-9.12,9.71,3.83,9.71,9.12,9.71,9.12-4.12,9.12-9.71Z"/>
    <path class="st3" d="M178.61,320.97h.06s.65-3.53,2.18-7.12l3.88-8.77h5.88l3.82,8.77c1.59,3.53,2.24,7.12,2.29,7.12l2.53-21.77h5.77l-3.53,29.42h-6.18l-5.24-11.83c-1.82-4.06-2.35-6.41-2.35-6.41h-.12s-.53,2.35-2.35,6.41l-5.24,11.83h-6.18l-3.53-29.42h5.77l2.53,21.77Z"/>
    <path class="st3" d="M217.68,308.32v20.3h-5.88v-29.42h5.3l18.24,20.3v-20.3h5.88v29.42h-5.29l-18.24-20.3Z"/>
    <path class="st3" d="M255.93,304.5v6.77h17.06v5.3h-17.06v6.77h22.95v5.3h-28.83v-29.42h28.83v5.29h-22.95Z"/>
    <path class="st3" d="M286.82,299.2h21.18c5.29,0,8.83,3.53,8.83,8.83,0,4.71-3.06,8-7.71,8.47.41.47.82,1,1.06,1.41l6.65,10.71h-6.65l-7.47-12.06h-10v12.06h-5.88v-29.42ZM308.01,311.26c1.77,0,2.94-1.18,2.94-2.94v-.88c0-1.77-1.18-2.94-2.94-2.94h-15.3v6.77h15.3Z"/>
    <path class="st3" d="M345.37,319.62c0-2.35-2.59-3.35-8.47-3.35-9.3,0-13.3-2.47-13.3-8.41s4.71-9.24,13.53-9.24c8.12,0,13.53,3.77,13.53,9.41h-5.88c0-2.47-3.06-4.12-7.65-4.12-5,0-7.65,1.35-7.65,3.94,0,2.24,2.35,3.12,7.94,3.12,9.71,0,13.83,2.65,13.83,8.65s-4.94,9.59-14.12,9.59c-8.47,0-14.12-3.77-14.12-9.41h5.88c0,2.47,3.3,4.12,8.24,4.12,5.35,0,8.24-1.53,8.24-4.3Z"/>
    <path class="st3" d="M364.5,311.26h17.65v-12.06h5.88v29.42h-5.88v-12.06h-17.65v12.06h-5.88v-29.42h5.88v12.06Z"/>
    <path class="st3" d="M396.86,328.62v-29.42h5.88v29.42h-5.88Z"/>
    <path class="st3" d="M417.46,328.62h-5.88v-29.42h21.18c5.29,0,8.83,3.53,8.83,8.83s-3.53,8.53-8.83,8.53h-15.3v12.06ZM417.46,311.26h15.3c1.77,0,2.94-1.18,2.94-2.94v-.88c0-1.77-1.18-2.94-2.94-2.94h-15.3v6.77Z"/>
  </g>
</svg>