<?xml version="1.0" encoding="UTF-8"?>
<svg id="Layer_1" xmlns="http://www.w3.org/2000/svg" xmlns:xlink="http://www.w3.org/1999/xlink" version="1.1" viewBox="0 0 576 576">
  <!-- Generator: Adobe Illustrator 30.2.1, SVG Export Plug-In . SVG Version: 2.1.1 Build 1)  -->
  <defs>
    <style>
      .st0 {
        opacity: .3;
        stroke: url(#linear-gradient1);
        stroke-width: 7.4px;
      }

      .st0, .st1 {
        fill: none;
        stroke-miterlimit: 10;
      }

      .st2 {
        fill: url(#linear-gradient2);
        opacity: .06;
      }

      .st3 {
        fill: #e9b052;
      }

      .st4 {
        fill: #25322e;
      }

      .st5 {
        fill: #fff;
      }

      .st1 {
        stroke: url(#linear-gradient);
        stroke-width: 17.27px;
      }
    </style>
    <linearGradient id="linear-gradient" x1="5.36" y1="-1632.83" x2="559.7" y2="-1632.83" gradientTransform="translate(570.53 -1344.83) rotate(-180)" gradientUnits="userSpaceOnUse">
      <stop offset="0" stop-color="#e9b250"/>
      <stop offset=".05" stop-color="#c09749"/>
      <stop offset=".1" stop-color="#9c7f43"/>
      <stop offset=".15" stop-color="#7b6a3e"/>
      <stop offset=".21" stop-color="#605839"/>
      <stop offset=".28" stop-color="#4a4a36"/>
      <stop offset=".36" stop-color="#393f33"/>
      <stop offset=".47" stop-color="#2d3731"/>
      <stop offset=".61" stop-color="#263330"/>
      <stop offset="1" stop-color="#253230"/>
    </linearGradient>
    <linearGradient id="linear-gradient1" x1="547.3" y1="288" x2="28.7" y2="288" gradientTransform="matrix(1,0,0,1,0,0)" xlink:href="#linear-gradient"/>
    <linearGradient id="linear-gradient2" x1="288" y1="497.51" x2="288" y2="47.07" gradientUnits="userSpaceOnUse">
      <stop offset="0" stop-color="#e9b250"/>
      <stop offset=".04" stop-color="#d5a54c"/>
      <stop offset=".17" stop-color="#a78745"/>
      <stop offset=".29" stop-color="#7f6c3e"/>
      <stop offset=".42" stop-color="#5e5739"/>
      <stop offset=".55" stop-color="#454735"/>
      <stop offset=".69" stop-color="#333b32"/>
      <stop offset=".84" stop-color="#283430"/>
      <stop offset="1" stop-color="#253230"/>
    </linearGradient>
  </defs>
  <path class="st3" d="M410.34,523.75h-244.68c-8.52,0-16.4-4.55-20.66-11.93L22.66,299.93c-4.26-7.38-4.26-16.48,0-23.86l122.34-211.9c4.26-7.38,12.14-11.93,20.66-11.93h244.68c8.52,0,16.4,4.55,20.66,11.93l122.34,211.9c4.26,7.38,4.26,16.48,0,23.86l-122.34,211.9c-4.26,7.38-12.14,11.93-20.66,11.93Z"/>
  <path class="st1" d="M165.66,523.75h244.68c8.52,0,16.4-4.55,20.66-11.93l122.34-211.9c4.26-7.38,4.26-16.48,0-23.86l-122.34-211.9c-4.26-7.38-12.14-11.93-20.66-11.93h-244.68c-8.52,0-16.4,4.55-20.66,11.93L22.66,276.07c-4.26,7.38-4.26,16.48,0,23.86l122.34,211.9c4.26,7.38,12.14,11.93,20.66,11.93Z"/>
  <path class="st0" d="M412.18,65.67c2.58,0,4.99,1.39,6.28,3.63l124.18,215.08c1.29,2.24,1.29,5.02,0,7.25l-124.18,215.08c-1.29,2.24-3.7,3.63-6.28,3.63h-248.35c-2.58,0-4.99-1.39-6.28-3.63l-124.18-215.08c-1.29-2.24-1.29-5.02,0-7.25l124.17-215.08c1.29-2.24,3.7-3.63,6.28-3.63h248.35Z"/>
  <path class="st2" d="M432.03,209.89c1.64-9.55,2.79-29.95-12.03-47.18-10.27-11.93-23.33-16.4-31.96-18.06-3.81-15.32-14.35-28.1-28.7-34.33-16.52-7.19-31.97-3-39.45-.03-1.72-1.88-3.57-3.65-5.54-5.25-13.36-10.8-29.47-14.83-44.21-11.05-11.71,3.01-19.79,10.06-24.65,15.75-8.38-2.05-21.86-3.27-35.6,4.13-13.91,7.49-23.17,21.23-25.41,37.01-8.92,1.76-21.96,6.46-31.99,18.92-14.16,17.59-11.99,38.04-9.87,47.57-6.58,8.79-17.32,27.15-14.03,50.06.61,4.32,4.7,26.6,24.07,41.34,18.58,14.13,38.56,11.86,56.19,9.87,14.61-1.64,27.23-3.07,38.17,3.91,6.81,4.36,12.15,11.58,15.99,21.58,2.4,6.69,5.11,17.63,2.95,30.59-.88,5.32-4.25,25.37-19.26,33.39-5.23,2.79-11.04,3.68-15.49,4.37-9.69,1.49-11.89-.42-20.2,1.54-8.34,1.97-13.94,5.74-15.79,7.06-4.95,3.53-8.2,7.42-10.14,10.14,5.74-3,14.73-6.7,25.94-6.93,10.08-.21,14.51,2.53,23.63,2.05,6.6-.35,16.17-2.4,27.65-10.79-5.67,5.62-8.71,10.94-10.44,14.81-3.4,7.59-2.68,11.59-7.36,19.69-2.28,3.95-4.34,7.4-8.47,10.02-5.98,3.78-12.44,3.36-15.24,3,1.27,2.18,3.48,5.14,7.11,6.68,10.22,4.33,22.49-6.63,24.4-8.39,7.14-6.59,6.89-11.4,13.76-21.66,5.94-8.87,12.56-14.85,17.14-18.49,16.82,15.42,22.12,36.03,14.64,49.42-1.49,2.67-5.3,8.29-14.38,12.22,2.3.45,12,2.08,20.8-3.85,9.15-6.17,13.64-18.04,11.3-30.05,2.54.22,8.94,1.11,15.15,5.91,6.17,4.77,8.64,10.69,9.5,13.1,1.41-13.6-1.98-20.68-5.65-24.65-6.74-7.29-16.7-6.61-23.37-16.44-2.57-3.78-3.62-7.6-4.11-10.27,0,0,10.04,4.9,19.18,6.51,11.12,1.96,12.24-2.48,24.23-.86,9.13,1.23,10.27,4.05,17.98,4.88,8.5.91,16.47-1.51,23.5-5.26-5.31-.05-13.41-.68-22.6-3.85-8.69-3-9.86-5.34-17.85-7.83-13.11-4.09-17.79-.25-26.71-3.21-12.08-4.02-18.24-15.99-21.57-22.47-14.86-28.89,2.19-62.26,4.63-66.85,2.4-3.03,5.1-5.45,8.11-7.22,10.2-6.01,22.45-3.64,36.66-.89,18.45,3.58,39.36,7.63,61.83-5.01,9.97-5.6,27.4-18.37,32.34-40.86,5.34-24.4-7.77-44.95-14.74-53.77ZM428.39,259.63c-2.86,14.6-13.06,25.04-22.72,30.09-15.79,8.26-34.5,4.42-49.49,1.34-9.47-1.94-11.31-3.52-18.31-3.74-14.46-.44-26.39,5.68-34.24,10.96,6.05-11.76,13-19.93,18.05-25.05,10.93-11.09,19.81-14.53,24.39-14.92,1.54-.13,3.07-.1,4.86-.07,2.53.03,5.47.07,8.96-.38.28.01.55.03.84.03.19,0,.39,0,.6-.01,2.72-.01,8.38-.07,15.12-2.14.51-.16,1-.35,1.51-.52,1.5-.28,2.88-.83,4.12-1.62.06-.03.1-.04.16-.07l.19-.09-.03-.04c3.01-2.07,5.01-5.54,5.01-9.47,0-6.33-5.15-11.48-11.5-11.48-2.17,0-4.21.61-5.94,1.67l-.03-.03-.15.1c-.06.04-.1.09-.16.13-.6.38-1.14.81-1.64,1.31-.07.06-.16.12-.23.19-2.11,1.91-3.29,3.78-3.8,4.6-.07.12-.13.2-.17.28-1.59,2.39-6.33,3.29-14.09,2.68h-.31s.13.29.13.29c-1.48,0-3.04.01-4.7.16-7.29.63-13.45,3.3-18.82,6.8,5.04-10.17,7.31-13.9,9.28-16.88,4.25-6.42,7.12-10.74,9.6-14.01l18.74-19.75c.29-.29.57-.58.84-.9l.17-.19.19-.2h-.03c1.72-2.18,2.77-4.93,2.77-7.92,0-7.04-5.73-12.76-12.76-12.76s-12.46,5.43-12.75,12.21v.23c-.32,4.25-1.24,8.31-2.75,12.06-1.75,4.35-4.13,7.92-6.23,11.06-.83,1.24-1.69,2.46-2.56,3.62l-.15.19.07.03c-1.75,2.55-3.71,5.52-6.1,9.11,0,0-.79,1.22-1.56,2.42-2.74,4.28-14.46,27.25-29.79,59.05.51-2.9,1.33-7.32,2.57-12.66,3.26-14.08,6.2-20.92,8.9-29.62,2.48-7.98,8.38-27.52,7.13-50.93-.48-9.13-1.93-16.52-3.06-21.26h.06s-.03-.17-.03-.17c-1.12-6.17-3.38-11.98-6.71-17.27-2.95-4.7-6.65-8.8-10.99-12.25-.38-.33-.79-.64-1.21-.93-.04-.03-.07-.06-.1-.09l-.13-.09h-.01c-1.88-1.18-4.12-1.88-6.53-1.88-6.55,0-11.89,5.14-11.89,11.47,0,3.13,1.31,5.95,3.41,8.03h-.01s.13.12.13.12c.03.03.06.04.09.07,1.08,1,2.34,1.82,3.75,2.39.79.38,1.6.7,2.43.95,1.4.41,2.39.49,3.25.57.68.06,1.27.1,1.89.31.52.16,1,.45,1.47.79,1.86,2.53,3.39,5.43,4.6,8.79.12.51.25,1.02.36,1.59l.04.15h.16c1.36,5.74,2.49,12.3,3.06,19.56,1.27,16.16-.72,29.99-3.14,40.27-4.24-15.72-11.27-24.7-17.12-30.05-8.47-7.75-21.08-13.95-26.56-26.56-1.01-2.32-1.94-4.46-2.25-7.55-.92-9.07,4.75-13.84,2.27-18.45-1.33-2.48-4.65-4.22-7.4-3.84-7.07.97-12.07,16.22-10.69,28.53,1.08,9.58,5.91,16.34,8.09,19.03,2.63,3.25,3.74,3.45,13.18,10.67,11.1,8.48,16.73,12.82,20.23,17.86,5.39,7.75,6.84,14.98,7.19,16.95.94,5.28.67,9.78.26,12.84-3.57-7.52-11.9-23.15-24.63-31.58-4.67-3.09-10.04-5.84-10.04-5.84-6.01-3.01-12.94-4.64-18.21-7.77-7.01-4.42-11.51-11.85-13.93-19.98-3.3-9.92-17.8-5.81-15.41,4.34,3.09,11.61,10.23,23.01,20.88,29.53,6.61,4,13.36,5.49,19.69,8.53,8.22,3.93,15.45,9.92,21.26,16.94,3.97,4.79,6.23,9.21,7.32,11.43,5.56,11.37,6.28,22.33,6,29.51-.92-2.85-2.53-7.16-5.31-11.98-1.48-2.57-13.77-23.23-37.35-30.26-13.18-3.93-15.09-2.09-25.03-5.09-7.28-2.2-13.13-8.05-17.81-13.98-5.7-8.64-18.55-1.35-13.9,7.93,3.46,6.89,13.04,18.92,27.37,22.88,11.33,3.12,15.93-.2,29.05,4.84,3.93,1.51,9.42,3.67,15.07,8.56,7.93,6.87,11.35,14.94,14.09,21.38,2.75,6.48,4.24,12.42,5.08,17.23-2.12-1.92-4.35-3.67-6.74-5.2-16.58-10.59-34.56-8.56-50.42-6.77-16.15,1.83-30.11,3.42-42.68-6.16-13.82-10.51-16.58-27.16-16.84-29.02-2.79-19.47,9.11-34.8,12.82-39.03l3.64-4.21-1.86-5.21c-.29-.8-6.84-19.62,5.33-34.72,9.5-11.8,23.76-12.84,26.53-12.94l9.3-.29-.19-9.3c-.25-12.2,5.89-23.17,16.02-28.64,12.02-6.48,24.27-1.96,26.6-1l7.33,3.06,4.23-6.74c2.02-3.2,7.8-10.96,17.83-13.52,13.8-3.52,24.95,5.27,27.71,7.45,18.06,14.25,14.54,40.41,14.3,42.03,4.07,3.04,8.13,6.08,12.2,9.12,1.4-6.9,2.54-15.36,2.57-25.04.02-7.17-.56-13.63-1.39-19.19,5.24-1.56,13.26-2.66,21.65.99,10.39,4.51,17.59,14.65,18.79,26.46l.8,8.08,8.11.38c3.77.19,16.82,1.63,26.19,12.5,12.73,14.79,7.32,33.98,7.09,34.8l-1.5,5.11,3.62,3.91c1.38,1.35,17.91,18.06,13.45,40.82Z"/>
  <g>
    <path class="st4" d="M213.2,187.78h42.65v7.68h-17.06v34.97h-8.53v-34.97h-17.06v-7.68Z"/>
    <path class="st4" d="M271.53,205.27h25.59v-17.48h8.53v42.65h-8.53v-17.48h-25.59v17.48h-8.53v-42.65h8.53v17.48Z"/>
    <path class="st4" d="M324.32,195.46v9.81h24.73v7.68h-24.73v9.81h33.26v7.68h-41.79v-42.65h41.79v7.68h-33.26Z"/>
    <path class="st4" d="M107.51,289.62c0-3.41-3.75-4.86-12.28-4.86-13.48,0-19.28-3.58-19.28-12.2s6.82-13.39,19.62-13.39c11.77,0,19.62,5.46,19.62,13.65h-8.53c0-3.58-4.44-5.97-11.09-5.97-7.25,0-11.09,1.96-11.09,5.71,0,3.24,3.41,4.52,11.51,4.52,14.07,0,20.04,3.84,20.04,12.54s-7.16,13.9-20.47,13.9c-12.28,0-20.47-5.46-20.47-13.65h8.53c0,3.58,4.78,5.97,11.94,5.97,7.76,0,11.94-2.22,11.94-6.23Z"/>
    <path class="st4" d="M124.05,302.67v-42.65h8.53v42.65h-8.53Z"/>
    <path class="st4" d="M187.59,302.67h-10.75l-13.82-16.03-13.48,16.03h-10.66l18.93-22.09-17.65-20.55h10.66l12.54,14.5,12.2-14.5h10.75l-17.74,20.55,19.02,22.09Z"/>
    <path class="st4" d="M242.85,289.62c0-3.41-3.75-4.86-12.28-4.86-13.48,0-19.28-3.58-19.28-12.2s6.82-13.39,19.62-13.39c11.77,0,19.62,5.46,19.62,13.65h-8.53c0-3.58-4.44-5.97-11.09-5.97-7.25,0-11.09,1.96-11.09,5.71,0,3.24,3.41,4.52,11.51,4.52,14.07,0,20.04,3.84,20.04,12.54s-7.16,13.9-20.47,13.9c-12.28,0-20.47-5.46-20.47-13.65h8.53c0,3.58,4.78,5.97,11.94,5.97,7.76,0,11.94-2.22,11.94-6.23Z"/>
    <path class="st4" d="M267.92,277.51h25.59v-17.48h8.53v42.65h-8.53v-17.48h-25.59v17.48h-8.53v-42.65h8.53v17.48Z"/>
    <path class="st4" d="M312.18,302.67v-42.65h8.53v42.65h-8.53Z"/>
    <path class="st4" d="M363.27,277.51v7.68h-23.88v17.48h-8.53v-42.65h40.94v7.68h-32.41v9.81h23.88Z"/>
    <path class="st4" d="M376.83,260.03h42.65v7.68h-17.06v34.97h-8.53v-34.97h-17.06v-7.68Z"/>
    <path class="st4" d="M456.06,289.62c0-3.41-3.75-4.86-12.28-4.86-13.48,0-19.28-3.58-19.28-12.2s6.82-13.39,19.62-13.39c11.77,0,19.62,5.46,19.62,13.65h-8.53c0-3.58-4.44-5.97-11.09-5.97-7.25,0-11.09,1.96-11.09,5.71,0,3.24,3.41,4.52,11.51,4.52,14.07,0,20.04,3.84,20.04,12.54s-7.17,13.9-20.47,13.9c-12.28,0-20.47-5.46-20.47-13.65h8.53c0,3.58,4.78,5.97,11.94,5.97,7.76,0,11.94-2.22,11.94-6.23Z"/>
    <path class="st4" d="M480.98,264.08v2.58h-4.98v13h-3.09v-13h-4.98v-2.58h13.06ZM497.81,279.65l-.57-9.16c-.06-1.2-.06-2.69-.11-4.35h-.17c-.4,1.37-.86,3.21-1.32,4.64l-2.81,8.65h-3.21l-2.81-8.88c-.29-1.2-.74-3.03-1.09-4.41h-.17c0,1.43-.06,2.92-.11,4.35l-.57,9.16h-2.98l1.15-15.57h4.64l2.69,7.62c.34,1.2.63,2.35,1.03,3.95h.06c.4-1.43.74-2.75,1.09-3.89l2.69-7.67h4.47l1.2,15.57h-3.09Z"/>
  </g>
  <g>
    <path class="st5" d="M200.23,354.77v4.72h-15.35v-25.47h5.91v20.75h9.44Z"/>
    <path class="st5" d="M209.18,338.56v5.94h8.01v4.37h-8.01v6.07h10.46v4.55h-16.4v-25.47h16.4v4.55h-10.46Z"/>
    <path class="st5" d="M246.13,359.49h-4.58c-.51,0-.93-.12-1.24-.36-.31-.24-.55-.54-.72-.92l-1.5-4.44h-9.69l-1.5,4.44c-.13.33-.36.62-.69.88s-.74.39-1.23.39h-4.62l9.86-25.47h6.05l9.86,25.47ZM236.74,349.75l-2.36-6.98c-.17-.44-.36-.96-.56-1.56-.2-.6-.4-1.25-.59-1.95-.17.71-.36,1.37-.56,1.98-.2.61-.38,1.13-.56,1.57l-2.34,6.94h6.98Z"/>
    <path class="st5" d="M271.25,346.74c0,1.84-.32,3.54-.95,5.1-.64,1.56-1.53,2.9-2.68,4.04-1.15,1.14-2.54,2.02-4.17,2.66-1.63.64-3.43.95-5.41.95h-9.9v-25.47h9.9c1.98,0,3.79.32,5.41.96,1.63.64,3.02,1.53,4.17,2.66,1.15,1.13,2.05,2.47,2.68,4.03.64,1.56.95,3.25.95,5.08ZM265.2,346.74c0-1.26-.16-2.39-.49-3.41-.33-1.01-.8-1.87-1.41-2.58s-1.36-1.25-2.25-1.63-1.89-.57-3.02-.57h-3.95v16.38h3.95c1.13,0,2.14-.19,3.02-.57s1.63-.92,2.25-1.63,1.08-1.57,1.41-2.58c.33-1.01.49-2.16.49-3.43Z"/>
    <path class="st5" d="M280.69,338.56v5.94h8.01v4.37h-8.01v6.07h10.46v4.55h-16.4v-25.47h16.4v4.55h-10.46Z"/>
    <path class="st5" d="M315.63,359.49h-5.35c-.99,0-1.7-.37-2.13-1.12l-4.23-7.4c-.2-.31-.42-.54-.66-.69-.24-.14-.59-.22-1.05-.22h-1.5v9.42h-5.91v-25.47h8.29c1.84,0,3.41.19,4.71.57,1.3.38,2.36.91,3.18,1.58s1.42,1.47,1.79,2.4c.37.92.56,1.92.56,3.01,0,.83-.11,1.61-.33,2.34-.22.73-.55,1.41-.98,2.04s-.96,1.18-1.6,1.67c-.64.49-1.37.89-2.19,1.21.38.2.75.45,1.08.74.34.3.64.65.91,1.06l5.42,8.86ZM303.07,345.99c.8,0,1.49-.1,2.05-.31.56-.2,1.03-.49,1.39-.85s.62-.78.79-1.27c.16-.48.24-1,.24-1.56,0-1.12-.36-1.99-1.09-2.62s-1.86-.94-3.38-.94h-2.38v7.55h2.38Z"/>
    <path class="st5" d="M331.85,339.19c-.18.28-.36.49-.55.63-.19.14-.44.21-.74.21-.27,0-.56-.08-.86-.25s-.66-.36-1.05-.57c-.39-.21-.84-.4-1.34-.57-.5-.17-1.07-.25-1.71-.25-1.11,0-1.93.24-2.47.71-.54.47-.81,1.11-.81,1.91,0,.51.16.94.49,1.28s.75.63,1.28.87,1.14.47,1.82.67c.68.2,1.38.43,2.09.68.71.25,1.41.54,2.09.88.68.34,1.29.77,1.82,1.29.53.52.96,1.16,1.28,1.91.33.75.49,1.66.49,2.72,0,1.18-.2,2.28-.61,3.31s-1,1.92-1.77,2.68c-.78.76-1.73,1.36-2.87,1.8-1.14.44-2.43.66-3.87.66-.79,0-1.6-.08-2.42-.25-.82-.16-1.62-.39-2.39-.69-.77-.3-1.49-.65-2.17-1.06-.68-.41-1.26-.86-1.77-1.36l1.75-2.76c.14-.2.32-.36.55-.5.23-.13.47-.2.74-.2.35,0,.7.11,1.06.33s.76.47,1.21.73c.45.27.96.51,1.55.73.58.22,1.27.33,2.06.33,1.07,0,1.91-.24,2.5-.71s.89-1.22.89-2.25c0-.6-.16-1.08-.49-1.45-.33-.37-.75-.68-1.28-.93-.53-.24-1.13-.46-1.81-.65-.68-.19-1.37-.39-2.08-.62-.71-.23-1.4-.51-2.08-.84-.68-.33-1.28-.77-1.81-1.31-.53-.54-.96-1.22-1.28-2.03-.33-.81-.49-1.81-.49-3,0-.96.19-1.89.58-2.8.38-.91.95-1.72,1.7-2.43.75-.71,1.66-1.28,2.75-1.7,1.08-.43,2.33-.64,3.72-.64.78,0,1.54.06,2.28.18s1.44.3,2.11.54c.66.24,1.28.52,1.86.86.58.33,1.09.71,1.55,1.13l-1.47,2.75Z"/>
    <path class="st5" d="M359.39,334.02v25.47h-5.95v-10.77h-10.35v10.77h-5.94v-25.47h5.94v10.65h10.35v-10.65h5.95Z"/>
    <path class="st5" d="M370.26,359.49h-5.94v-25.47h5.94v25.47Z"/>
    <path class="st5" d="M384.18,334.02c1.8,0,3.34.21,4.63.64,1.29.43,2.35,1.01,3.18,1.76.83.75,1.45,1.63,1.84,2.64.4,1.01.6,2.11.6,3.29,0,1.27-.2,2.44-.61,3.5-.41,1.06-1.03,1.97-1.87,2.73-.84.76-1.9,1.35-3.19,1.77-1.29.43-2.81.64-4.57.64h-3.08v8.52h-5.91v-25.47h8.99ZM384.18,346.52c1.54,0,2.65-.37,3.32-1.1.68-.73,1.01-1.76,1.01-3.08,0-.58-.09-1.11-.26-1.59-.18-.48-.44-.89-.8-1.23-.36-.34-.8-.61-1.35-.8-.54-.19-1.19-.28-1.93-.28h-3.08v8.08h3.08Z"/>
    <path class="st5" d="M144.05,388.71c0,1.84-.32,3.56-.95,5.14-.64,1.59-1.53,2.96-2.68,4.14-1.15,1.17-2.54,2.09-4.17,2.75s-3.43,1-5.41,1-3.79-.33-5.42-1c-1.63-.66-3.03-1.58-4.19-2.75-1.16-1.17-2.06-2.55-2.69-4.14-.64-1.59-.95-3.3-.95-5.14s.32-3.55.95-5.14c.64-1.59,1.53-2.96,2.69-4.13,1.16-1.17,2.56-2.08,4.19-2.75,1.63-.66,3.44-1,5.42-1s3.79.33,5.41,1.01,3.02,1.59,4.17,2.75c1.15,1.17,2.05,2.54,2.68,4.13.64,1.59.95,3.29.95,5.12ZM138,388.71c0-1.26-.16-2.39-.49-3.4-.33-1.01-.8-1.86-1.41-2.56-.61-.7-1.36-1.24-2.25-1.61-.89-.37-1.89-.56-3.02-.56s-2.16.19-3.05.56c-.89.37-1.64.91-2.26,1.61-.61.7-1.08,1.55-1.41,2.56-.33,1.01-.49,2.14-.49,3.4s.16,2.41.49,3.42c.33,1.01.8,1.86,1.41,2.56.61.7,1.36,1.23,2.26,1.6s1.91.55,3.05.55,2.14-.18,3.02-.55,1.63-.9,2.25-1.6,1.08-1.55,1.41-2.56c.33-1.01.49-2.15.49-3.42Z"/>
    <path class="st5" d="M156.52,375.98c1.8,0,3.34.21,4.62.64,1.29.43,2.35,1.01,3.18,1.76.83.75,1.45,1.63,1.84,2.64.4,1.01.59,2.11.59,3.29,0,1.27-.2,2.44-.61,3.5-.41,1.06-1.03,1.97-1.87,2.73s-1.9,1.35-3.19,1.77c-1.29.43-2.81.64-4.57.64h-3.08v8.52h-5.91v-25.47h8.99ZM156.52,388.48c1.54,0,2.65-.37,3.32-1.1.68-.73,1.01-1.76,1.01-3.08,0-.58-.09-1.11-.26-1.59-.17-.48-.44-.89-.8-1.23-.36-.34-.8-.61-1.35-.8-.54-.19-1.19-.28-1.93-.28h-3.08v8.08h3.08Z"/>
    <path class="st5" d="M175.71,380.52v5.94h8.01v4.37h-8.01v6.07h10.46v4.55h-16.4v-25.47h16.4v4.55h-10.46Z"/>
    <path class="st5" d="M210.65,401.45h-5.35c-.99,0-1.7-.37-2.13-1.12l-4.23-7.4c-.2-.31-.42-.54-.66-.69-.25-.14-.59-.22-1.05-.22h-1.5v9.42h-5.91v-25.47h8.29c1.84,0,3.41.19,4.71.57s2.36.91,3.18,1.58,1.42,1.47,1.79,2.4c.37.92.56,1.92.56,3.01,0,.83-.11,1.61-.33,2.34-.22.73-.55,1.41-.98,2.04s-.96,1.18-1.6,1.67c-.64.49-1.37.89-2.19,1.21.38.2.75.45,1.08.74.34.3.64.65.91,1.06l5.42,8.86ZM198.09,387.95c.8,0,1.49-.1,2.05-.31.57-.2,1.03-.49,1.39-.85.36-.36.62-.78.79-1.27.16-.48.24-1,.24-1.56,0-1.12-.36-1.99-1.09-2.62s-1.86-.94-3.38-.94h-2.38v7.55h2.38Z"/>
    <path class="st5" d="M235.65,401.45h-4.58c-.51,0-.93-.12-1.24-.36-.31-.24-.55-.54-.72-.92l-1.5-4.44h-9.69l-1.5,4.44c-.13.33-.36.62-.69.88s-.74.39-1.23.39h-4.62l9.86-25.47h6.05l9.86,25.47ZM226.26,391.71l-2.36-6.98c-.17-.44-.36-.96-.56-1.56-.2-.6-.4-1.25-.59-1.95-.17.71-.36,1.37-.56,1.98-.2.61-.38,1.13-.56,1.57l-2.34,6.94h6.98Z"/>
    <path class="st5" d="M253.49,380.66h-7.17v20.79h-5.91v-20.79h-7.17v-4.69h20.25v4.69Z"/>
    <path class="st5" d="M262.42,401.45h-5.94v-25.47h5.94v25.47Z"/>
    <path class="st5" d="M289.59,375.98v25.47h-3.08c-.45,0-.84-.07-1.15-.22-.31-.15-.62-.4-.92-.76l-12.01-15.19c.05.45.08.89.1,1.32.02.43.03.83.03,1.2v13.66h-5.21v-25.47h3.11c.26,0,.47.01.65.03.18.02.33.07.47.13.14.06.27.15.4.27.13.12.27.27.44.47l12.12,15.3c-.06-.49-.1-.96-.12-1.42-.02-.46-.03-.89-.03-1.3v-13.48h5.21Z"/>
    <path class="st5" d="M306.76,388.25h9.06v10.75c-1.31.96-2.7,1.65-4.17,2.08-1.47.43-3.02.65-4.63.65-2.1,0-4.01-.33-5.73-.99-1.72-.66-3.19-1.57-4.42-2.73s-2.17-2.54-2.83-4.13-1-3.32-1-5.18.31-3.64.94-5.24c.63-1.59,1.53-2.96,2.7-4.12,1.17-1.15,2.59-2.05,4.25-2.69,1.66-.64,3.52-.96,5.57-.96,1.06,0,2.06.09,2.99.26.93.17,1.79.41,2.58.72.79.3,1.51.66,2.16,1.08.65.42,1.24.87,1.75,1.36l-1.71,2.61c-.27.41-.62.66-1.04.75s-.88-.01-1.37-.31c-.47-.28-.91-.52-1.32-.73s-.84-.37-1.27-.5c-.43-.13-.89-.22-1.36-.28-.48-.06-1.01-.09-1.61-.09-1.11,0-2.1.2-2.99.59-.89.39-1.64.94-2.26,1.65-.62.71-1.1,1.57-1.44,2.56-.34,1-.51,2.11-.51,3.33,0,1.35.19,2.55.56,3.6.37,1.05.9,1.93,1.58,2.66.68.72,1.5,1.27,2.45,1.65.95.38,2,.57,3.16.57.71,0,1.36-.07,1.93-.21s1.14-.33,1.69-.56v-3.86h-2.52c-.37,0-.66-.1-.87-.3s-.31-.45-.31-.75v-3.25Z"/>
    <path class="st5" d="M341.94,381.15c-.18.28-.36.49-.55.63-.19.14-.44.21-.74.21-.27,0-.56-.08-.86-.25s-.66-.36-1.05-.57c-.39-.21-.84-.4-1.34-.57-.5-.17-1.07-.25-1.71-.25-1.11,0-1.93.24-2.47.71-.54.47-.81,1.11-.81,1.91,0,.51.16.94.49,1.28s.75.63,1.28.87,1.14.47,1.82.67c.68.2,1.38.43,2.09.68.71.25,1.41.54,2.09.88.68.34,1.29.77,1.82,1.29.53.52.96,1.16,1.28,1.91.33.75.49,1.66.49,2.72,0,1.18-.2,2.28-.61,3.31s-1,1.92-1.77,2.68c-.78.76-1.73,1.36-2.87,1.8-1.14.44-2.43.66-3.87.66-.79,0-1.6-.08-2.42-.25-.82-.16-1.62-.39-2.39-.69-.77-.3-1.49-.65-2.17-1.06-.68-.41-1.26-.86-1.77-1.36l1.75-2.76c.14-.2.32-.36.55-.5.23-.13.47-.2.74-.2.35,0,.7.11,1.06.33s.76.47,1.21.73c.45.27.96.51,1.55.73.58.22,1.27.33,2.06.33,1.07,0,1.91-.24,2.5-.71s.89-1.22.89-2.25c0-.6-.16-1.08-.49-1.45-.33-.37-.75-.68-1.28-.93-.53-.24-1.13-.46-1.81-.65-.68-.19-1.37-.39-2.08-.62-.71-.23-1.4-.51-2.08-.84-.68-.33-1.28-.77-1.81-1.31-.53-.54-.96-1.22-1.28-2.03-.33-.81-.49-1.81-.49-3,0-.96.19-1.89.58-2.8.38-.91.95-1.72,1.7-2.43.75-.71,1.66-1.28,2.75-1.7,1.08-.43,2.33-.64,3.72-.64.78,0,1.54.06,2.28.18s1.44.3,2.11.54c.66.24,1.28.52,1.86.86.58.33,1.09.71,1.55,1.13l-1.47,2.75Z"/>
    <path class="st5" d="M358.79,391.77v9.69h-5.91v-9.69l-9.23-15.79h5.21c.51,0,.92.12,1.22.36.3.24.54.54.74.92l3.6,7.41c.3.58.58,1.13.82,1.63.25.51.46,1.01.65,1.49.17-.5.38-1,.6-1.51.23-.51.49-1.05.8-1.62l3.57-7.41c.08-.15.18-.3.3-.46.12-.15.25-.29.41-.41s.34-.22.54-.3.43-.11.67-.11h5.25l-9.23,15.79Z"/>
    <path class="st5" d="M383.06,381.15c-.18.28-.36.49-.55.63-.19.14-.44.21-.74.21-.27,0-.56-.08-.86-.25s-.66-.36-1.05-.57c-.39-.21-.84-.4-1.34-.57-.5-.17-1.07-.25-1.71-.25-1.11,0-1.93.24-2.47.71-.54.47-.81,1.11-.81,1.91,0,.51.16.94.49,1.28s.75.63,1.28.87,1.14.47,1.82.67c.68.2,1.38.43,2.09.68.71.25,1.41.54,2.09.88.68.34,1.29.77,1.82,1.29.53.52.96,1.16,1.28,1.91.33.75.49,1.66.49,2.72,0,1.18-.2,2.28-.61,3.31s-1,1.92-1.77,2.68c-.78.76-1.73,1.36-2.87,1.8-1.14.44-2.43.66-3.87.66-.79,0-1.6-.08-2.42-.25-.82-.16-1.62-.39-2.39-.69-.77-.3-1.49-.65-2.17-1.06-.68-.41-1.26-.86-1.77-1.36l1.75-2.76c.14-.2.32-.36.55-.5.23-.13.47-.2.74-.2.35,0,.7.11,1.06.33s.76.47,1.21.73c.45.27.96.51,1.55.73.58.22,1.27.33,2.06.33,1.07,0,1.91-.24,2.5-.71s.89-1.22.89-2.25c0-.6-.16-1.08-.49-1.45-.33-.37-.75-.68-1.28-.93-.53-.24-1.13-.46-1.81-.65-.68-.19-1.37-.39-2.08-.62-.71-.23-1.4-.51-2.08-.84-.68-.33-1.28-.77-1.81-1.31-.53-.54-.96-1.22-1.28-2.03-.33-.81-.49-1.81-.49-3,0-.96.19-1.89.58-2.8.38-.91.95-1.72,1.7-2.43.75-.71,1.66-1.28,2.75-1.7,1.08-.43,2.33-.64,3.72-.64.78,0,1.54.06,2.28.18s1.44.3,2.11.54c.66.24,1.28.52,1.86.86.58.33,1.09.71,1.55,1.13l-1.47,2.75Z"/>
    <path class="st5" d="M406.67,380.66h-7.17v20.79h-5.91v-20.79h-7.17v-4.69h20.25v4.69Z"/>
    <path class="st5" d="M415.6,380.52v5.94h8.01v4.37h-8.01v6.07h10.46v4.55h-16.4v-25.47h16.4v4.55h-10.46Z"/>
    <path class="st5" d="M458.33,375.98v25.47h-5.21v-14.65c0-.34,0-.71.03-1.1.02-.4.05-.8.1-1.21l-6.77,13.1c-.21.41-.49.72-.85.93-.36.21-.76.31-1.22.31h-.8c-.45,0-.86-.1-1.22-.31-.35-.21-.64-.52-.85-.93l-6.77-13.13c.03.42.06.83.09,1.23.02.4.03.77.03,1.11v14.65h-5.21v-25.47h4.51c.26,0,.48,0,.67.02s.36.05.52.1c.15.06.29.15.41.27.12.12.24.29.36.52l6.56,12.92c.23.44.46.9.67,1.38.22.48.42.97.62,1.47.2-.51.41-1.01.62-1.5.22-.49.45-.96.69-1.4l6.54-12.87c.12-.22.24-.39.36-.52.12-.12.26-.21.41-.27.15-.06.32-.09.52-.1s.42-.02.67-.02h4.51Z"/>
  </g>
</svg>