<?xml version="1.0" encoding="UTF-8"?>
<svg id="Layer_1" xmlns="http://www.w3.org/2000/svg" xmlns:xlink="http://www.w3.org/1999/xlink" version="1.1" viewBox="0 0 576 576">
  <!-- Generator: Adobe Illustrator 30.2.1, SVG Export Plug-In . SVG Version: 2.1.1 Build 1)  -->
  <defs>
    <style>
      .st0 {
        fill: url(#linear-gradient1);
        opacity: .3;
      }

      .st1 {
        fill: url(#linear-gradient);
      }

      .st2 {
        fill: none;
        stroke: url(#linear-gradient2);
        stroke-miterlimit: 10;
        stroke-width: 17.27px;
      }

      .st3 {
        fill: #e9b250;
      }

      .st4 {
        fill: #fff;
      }

      .st5 {
        fill: #eab151;
      }
    </style>
    <linearGradient id="linear-gradient" x1="14.42" y1="288" x2="561.58" y2="288" gradientUnits="userSpaceOnUse">
      <stop offset="0" stop-color="#e9b250"/>
      <stop offset=".05" stop-color="#c09749"/>
      <stop offset=".1" stop-color="#9c7f43"/>
      <stop offset=".15" stop-color="#7b6a3e"/>
      <stop offset=".21" stop-color="#605839"/>
      <stop offset=".28" stop-color="#4a4a36"/>
      <stop offset=".36" stop-color="#393f33"/>
      <stop offset=".47" stop-color="#2d3731"/>
      <stop offset=".61" stop-color="#263330"/>
      <stop offset="1" stop-color="#253230"/>
    </linearGradient>
    <linearGradient id="linear-gradient1" x1="28.21" y1="-1632.83" x2="536.85" y2="-1632.83" gradientTransform="translate(570.53 -1344.83) rotate(-180)" xlink:href="#linear-gradient"/>
    <linearGradient id="linear-gradient2" x1=".32" y1="-1632.83" x2="564.74" y2="-1632.83" gradientTransform="translate(570.53 -1344.83) rotate(-180)" xlink:href="#linear-gradient"/>
  </defs>
  <path class="st1" d="M412.86,47.88h-249.72c-8.52,0-16.4,4.55-20.66,11.93L17.62,276.07c-4.26,7.38-4.26,16.48,0,23.86l124.86,216.26c4.26,7.38,12.14,11.93,20.66,11.93h249.72c8.52,0,16.4-4.55,20.66-11.93l124.86-216.26c4.26-7.38,4.26-16.48,0-23.86l-124.86-216.26c-4.26-7.38-12.14-11.93-20.66-11.93Z"/>
  <path class="st1" d="M412.86,47.88h-249.72c-8.52,0-16.4,4.55-20.66,11.93L17.62,276.07c-4.26,7.38-4.26,16.48,0,23.86l124.86,216.26c4.26,7.38,12.14,11.93,20.66,11.93h249.72c8.52,0,16.4-4.55,20.66-11.93l124.86-216.26c4.26-7.38,4.26-16.48,0-23.86l-124.86-216.26c-4.26-7.38-12.14-11.93-20.66-11.93Z"/>
  <path class="st0" d="M411.55,66.78c2.57,0,4.97,1.38,6.25,3.61l123.55,214c1.29,2.23,1.29,4.99,0,7.22l-123.55,214c-1.29,2.23-3.68,3.61-6.25,3.61h-247.11c-2.57,0-4.97-1.38-6.25-3.61l-123.55-214c-1.28-2.23-1.28-4.99,0-7.22l123.55-214c1.29-2.23,3.68-3.61,6.25-3.61h247.11Z"/>
  <g>
    <path class="st4" d="M174.27,356.47c1.44,0,2.68.17,3.73.51,1.05.34,1.92.81,2.6,1.41s1.19,1.33,1.52,2.17c.33.84.5,1.76.5,2.76s-.17,1.99-.52,2.86c-.35.87-.87,1.61-1.56,2.24-.69.62-1.56,1.11-2.61,1.46-1.04.35-2.27.52-3.66.52h-2.99v7.56h-4v-21.48h6.98ZM174.27,367.27c.73,0,1.37-.09,1.92-.27.54-.18,1-.45,1.36-.79s.63-.76.81-1.25c.18-.49.27-1.04.27-1.64s-.09-1.09-.27-1.56c-.18-.47-.45-.86-.8-1.19s-.81-.58-1.35-.75c-.54-.17-1.19-.26-1.93-.26h-2.99v7.71h2.99Z"/>
    <path class="st4" d="M197.11,360.38c-.12.21-.25.36-.38.45s-.3.14-.5.14c-.21,0-.43-.08-.68-.23-.24-.15-.53-.32-.87-.51s-.73-.36-1.18-.51c-.45-.15-.98-.23-1.6-.23-.55,0-1.04.07-1.46.2s-.76.32-1.05.56c-.28.24-.49.52-.63.85-.14.33-.21.7-.21,1.09,0,.51.14.93.42,1.26s.66.62,1.12.86c.47.24.99.45,1.59.64.59.19,1.2.39,1.83.6.62.21,1.23.46,1.83.74.59.28,1.12.64,1.59,1.07s.84.96,1.12,1.58.42,1.38.42,2.27c0,.97-.17,1.88-.5,2.73-.33.85-.82,1.58-1.46,2.21-.64.63-1.42,1.12-2.34,1.49-.92.36-1.98.54-3.16.54-.68,0-1.36-.07-2.02-.2-.66-.13-1.3-.32-1.91-.57s-1.18-.54-1.72-.89c-.53-.35-1.01-.73-1.43-1.16l1.17-1.92c.1-.14.23-.25.39-.35s.33-.14.51-.14c.25,0,.51.1.8.3.29.2.63.43,1.02.68.4.25.86.47,1.39.68.53.2,1.17.3,1.91.3,1.14,0,2.02-.27,2.64-.81.62-.54.94-1.31.94-2.32,0-.56-.14-1.02-.42-1.38-.28-.36-.66-.66-1.12-.9-.47-.24-1-.45-1.59-.62s-1.2-.35-1.81-.55c-.61-.2-1.22-.44-1.81-.71-.59-.28-1.12-.64-1.59-1.08-.47-.45-.84-1-1.12-1.67-.28-.67-.42-1.49-.42-2.47,0-.78.16-1.54.47-2.29.31-.74.76-1.4,1.36-1.98.59-.57,1.33-1.03,2.2-1.38.87-.35,1.87-.52,3-.52,1.27,0,2.44.2,3.51.59,1.07.4,1.98.95,2.73,1.66l-.99,1.89Z"/>
    <path class="st4" d="M210.7,369.63v8.32h-3.98v-8.32l-7.83-13.16h3.52c.35,0,.62.08.82.25.2.17.37.38.51.64l3.92,7.17c.23.43.43.83.6,1.2s.33.75.47,1.13c.13-.38.28-.75.45-1.13s.36-.78.58-1.2l3.91-7.17c.11-.22.27-.42.49-.61.22-.19.5-.28.83-.28h3.53l-7.83,13.16Z"/>
    <path class="st4" d="M234.23,372.89c.22,0,.41.08.58.25l1.57,1.71c-.87,1.08-1.94,1.91-3.22,2.48-1.27.57-2.8.86-4.58.86-1.59,0-3.03-.27-4.3-.82-1.27-.54-2.36-1.3-3.26-2.27-.9-.97-1.59-2.13-2.07-3.48-.48-1.35-.72-2.82-.72-4.41s.26-3.09.77-4.43,1.24-2.5,2.18-3.47c.94-.97,2.05-1.73,3.35-2.27,1.3-.54,2.73-.81,4.31-.81s2.95.26,4.17.77,2.25,1.19,3.1,2.02l-1.34,1.86c-.08.12-.18.22-.3.31-.12.09-.29.13-.51.13-.15,0-.3-.04-.46-.13-.16-.08-.33-.19-.52-.31-.19-.12-.41-.26-.65-.41-.25-.15-.54-.28-.86-.41-.33-.12-.71-.23-1.14-.31-.43-.08-.93-.13-1.49-.13-.96,0-1.84.17-2.64.51-.8.34-1.48.84-2.06,1.49-.57.65-1.02,1.44-1.34,2.38-.32.94-.48,2-.48,3.2s.17,2.28.51,3.22c.34.94.8,1.73,1.39,2.38s1.27,1.14,2.06,1.48,1.64.51,2.55.51c.54,0,1.04-.03,1.48-.09.44-.06.85-.15,1.22-.28.37-.13.72-.29,1.05-.5.33-.2.66-.45.99-.75.1-.09.2-.16.31-.22.11-.05.22-.08.34-.08Z"/>
    <path class="st4" d="M257.24,356.47v21.48h-4.01v-9.39h-10.09v9.39h-4.01v-21.48h4.01v9.24h10.09v-9.24h4.01Z"/>
    <path class="st4" d="M282.5,367.21c0,1.57-.26,3.03-.78,4.37-.52,1.34-1.26,2.5-2.21,3.48-.95.98-2.09,1.75-3.43,2.29-1.34.55-2.82.82-4.46.82s-3.1-.27-4.44-.82-2.48-1.31-3.44-2.29c-.96-.98-1.7-2.14-2.22-3.48s-.79-2.8-.79-4.37.26-3.03.79-4.37,1.26-2.5,2.22-3.48c.96-.98,2.1-1.75,3.44-2.29s2.82-.82,4.44-.82c1.09,0,2.11.13,3.07.38.96.25,1.84.61,2.64,1.07.8.46,1.52,1.02,2.16,1.68.64.66,1.18,1.39,1.63,2.21.45.81.78,1.69,1.02,2.64s.35,1.95.35,3ZM278.42,367.21c0-1.18-.16-2.24-.48-3.17-.32-.94-.77-1.73-1.35-2.38-.58-.65-1.29-1.15-2.13-1.5s-1.78-.52-2.83-.52-1.99.17-2.83.52c-.84.35-1.55.85-2.14,1.5-.59.65-1.04,1.45-1.36,2.38-.32.94-.48,1.99-.48,3.17s.16,2.24.48,3.17.77,1.73,1.36,2.38c.59.65,1.3,1.15,2.14,1.49.84.35,1.78.52,2.83.52s1.99-.17,2.83-.52,1.55-.84,2.13-1.49,1.03-1.44,1.35-2.38c.32-.94.48-1.99.48-3.17Z"/>
    <path class="st4" d="M298.6,374.65v3.3h-12.58v-21.48h4v18.18h8.58Z"/>
    <path class="st4" d="M321.18,367.21c0,1.57-.26,3.03-.78,4.37s-1.26,2.5-2.21,3.48-2.09,1.75-3.43,2.29c-1.34.55-2.82.82-4.46.82s-3.1-.27-4.44-.82-2.48-1.31-3.44-2.29-1.7-2.14-2.22-3.48-.79-2.8-.79-4.37.26-3.03.79-4.37,1.26-2.5,2.22-3.48c.96-.98,2.1-1.75,3.44-2.29s2.82-.82,4.44-.82c1.09,0,2.11.13,3.07.38.96.25,1.84.61,2.64,1.07s1.52,1.02,2.16,1.68c.64.66,1.18,1.39,1.63,2.21.44.81.78,1.69,1.02,2.64s.35,1.95.35,3ZM317.09,367.21c0-1.18-.16-2.24-.47-3.17-.32-.94-.77-1.73-1.35-2.38-.58-.65-1.29-1.15-2.13-1.5s-1.78-.52-2.83-.52-1.99.17-2.83.52c-.84.35-1.55.85-2.14,1.5-.59.65-1.04,1.45-1.36,2.38-.32.94-.48,1.99-.48,3.17s.16,2.24.48,3.17c.32.94.77,1.73,1.36,2.38s1.3,1.15,2.14,1.49c.84.35,1.78.52,2.83.52s1.99-.17,2.83-.52,1.55-.84,2.13-1.49c.58-.65,1.03-1.44,1.35-2.38.32-.94.47-1.99.47-3.17Z"/>
    <path class="st4" d="M342.4,367.18v8.69c-1.09.8-2.25,1.39-3.48,1.76-1.23.37-2.55.56-3.96.56-1.75,0-3.34-.27-4.76-.82-1.42-.54-2.63-1.3-3.64-2.27-1.01-.97-1.78-2.13-2.32-3.48s-.82-2.82-.82-4.41.26-3.09.79-4.44,1.27-2.51,2.24-3.48c.97-.97,2.14-1.72,3.51-2.26,1.38-.53,2.92-.8,4.63-.8.87,0,1.69.07,2.44.21.76.14,1.46.33,2.11.57.65.24,1.24.54,1.77.88s1.02.73,1.47,1.14l-1.14,1.81c-.18.29-.41.46-.7.53-.29.06-.6,0-.94-.22-.33-.19-.65-.38-.98-.56-.33-.19-.69-.35-1.09-.49-.4-.14-.85-.25-1.35-.34-.5-.09-1.08-.13-1.73-.13-1.06,0-2.02.18-2.87.54-.86.36-1.59.87-2.19,1.53-.6.66-1.07,1.46-1.4,2.39-.33.93-.49,1.97-.49,3.12,0,1.23.18,2.32.53,3.29s.85,1.78,1.49,2.45c.64.67,1.41,1.18,2.31,1.53.9.35,1.91.53,3.02.53.79,0,1.5-.08,2.12-.25.62-.17,1.23-.4,1.83-.68v-3.89h-2.7c-.26,0-.46-.07-.6-.22-.14-.14-.21-.32-.21-.53v-2.26h7.13Z"/>
    <path class="st4" d="M350.27,377.95h-4.01v-21.48h4.01v21.48Z"/>
    <path class="st4" d="M369.82,372.89c.22,0,.41.08.58.25l1.57,1.71c-.87,1.08-1.94,1.91-3.22,2.48-1.27.57-2.8.86-4.58.86-1.59,0-3.03-.27-4.3-.82-1.27-.54-2.36-1.3-3.26-2.27-.9-.97-1.59-2.13-2.07-3.48-.48-1.35-.72-2.82-.72-4.41s.26-3.09.77-4.43,1.24-2.5,2.18-3.47c.94-.97,2.05-1.73,3.35-2.27,1.3-.54,2.73-.81,4.31-.81s2.95.26,4.17.77c1.21.51,2.25,1.19,3.1,2.02l-1.34,1.86c-.08.12-.18.22-.3.31-.12.09-.3.13-.51.13-.15,0-.3-.04-.46-.13-.16-.08-.33-.19-.52-.31-.19-.12-.41-.26-.65-.41-.25-.15-.53-.28-.86-.41-.33-.12-.71-.23-1.14-.31-.43-.08-.93-.13-1.49-.13-.96,0-1.84.17-2.64.51-.8.34-1.48.84-2.06,1.49-.57.65-1.02,1.44-1.34,2.38-.32.94-.48,2-.48,3.2s.17,2.28.51,3.22c.34.94.81,1.73,1.39,2.38s1.27,1.14,2.06,1.48,1.64.51,2.56.51c.54,0,1.04-.03,1.48-.09s.85-.15,1.22-.28c.37-.13.72-.29,1.05-.5.33-.2.66-.45.99-.75.1-.09.2-.16.31-.22.11-.05.22-.08.34-.08Z"/>
    <path class="st4" d="M393.12,377.95h-3.09c-.35,0-.63-.09-.85-.26-.22-.17-.38-.39-.49-.65l-1.6-4.38h-8.9l-1.6,4.38c-.08.23-.23.44-.46.62s-.51.28-.85.28h-3.12l8.45-21.48h4.07l8.44,21.48ZM386.07,369.84l-2.61-7.14c-.13-.32-.26-.69-.4-1.13-.14-.44-.28-.91-.42-1.41-.13.51-.26.98-.4,1.42-.14.44-.27.82-.4,1.15l-2.6,7.11h6.83Z"/>
    <path class="st4" d="M407.93,374.65v3.3h-12.58v-21.48h4v18.18h8.58Z"/>
    <path class="st4" d="M249.91,394.57c-.12.21-.25.36-.38.45s-.3.14-.5.14c-.21,0-.43-.08-.68-.23-.24-.15-.53-.32-.87-.51s-.73-.36-1.18-.51c-.45-.15-.98-.23-1.6-.23-.55,0-1.04.07-1.46.2s-.76.32-1.05.56c-.28.24-.49.52-.63.85-.14.33-.21.7-.21,1.09,0,.51.14.93.42,1.26s.66.62,1.12.86c.47.24.99.45,1.59.64.59.19,1.2.39,1.83.6.62.21,1.23.46,1.83.74.59.28,1.12.64,1.59,1.07s.84.96,1.12,1.58.42,1.38.42,2.27c0,.97-.17,1.88-.5,2.73-.33.85-.82,1.58-1.46,2.21-.64.63-1.42,1.12-2.34,1.49-.92.36-1.98.54-3.16.54-.68,0-1.36-.07-2.02-.2-.66-.13-1.3-.32-1.91-.57s-1.18-.54-1.72-.89c-.53-.35-1.01-.73-1.43-1.16l1.17-1.92c.1-.14.23-.25.39-.35s.33-.14.51-.14c.25,0,.51.1.8.3.29.2.63.43,1.02.68.4.25.86.47,1.39.68.53.2,1.17.3,1.91.3,1.14,0,2.02-.27,2.64-.81.62-.54.94-1.31.94-2.32,0-.56-.14-1.02-.42-1.38-.28-.36-.66-.66-1.12-.9-.47-.24-1-.45-1.59-.62s-1.2-.35-1.81-.55c-.61-.2-1.22-.44-1.81-.71-.59-.28-1.12-.64-1.59-1.08-.47-.45-.84-1-1.12-1.67-.28-.67-.42-1.49-.42-2.47,0-.78.16-1.54.47-2.29.31-.74.76-1.4,1.36-1.98.59-.57,1.33-1.03,2.2-1.38.87-.35,1.87-.52,3-.52,1.27,0,2.44.2,3.51.59,1.07.4,1.98.95,2.73,1.66l-.99,1.89Z"/>
    <path class="st4" d="M272.73,412.14h-3.09c-.35,0-.63-.09-.85-.26-.22-.17-.38-.39-.49-.65l-1.6-4.38h-8.9l-1.6,4.38c-.08.23-.23.44-.46.62-.23.19-.51.28-.85.28h-3.12l8.45-21.48h4.07l8.44,21.48ZM265.68,404.03l-2.61-7.14c-.13-.32-.26-.69-.4-1.13-.14-.44-.28-.91-.42-1.41-.13.51-.26.98-.4,1.42-.14.44-.27.82-.4,1.15l-2.6,7.11h6.83Z"/>
    <path class="st4" d="M278.97,393.84v6.36h8.05v3.19h-8.05v8.75h-4.01v-21.48h13.55v3.18h-9.54Z"/>
    <path class="st4" d="M295.79,393.84v5.96h7.52v3.07h-7.52v6.07h9.54v3.19h-13.55v-21.48h13.55v3.18h-9.54Z"/>
    <path class="st4" d="M323.86,393.94h-6.47v18.19h-4v-18.19h-6.48v-3.28h16.95v3.28Z"/>
    <path class="st4" d="M335.9,403.82v8.32h-3.98v-8.32l-7.83-13.16h3.52c.35,0,.62.08.82.25s.37.38.51.64l3.92,7.17c.23.43.43.83.6,1.2s.33.75.47,1.13c.13-.38.28-.75.45-1.13.17-.38.36-.78.58-1.2l3.91-7.17c.11-.22.27-.42.49-.61.22-.19.5-.28.83-.28h3.54l-7.83,13.16Z"/>
  </g>
  <path class="st5" d="M217.78,217.57l15.71,9.07c1.07.62,2.43.25,3.04-.82,0,0,0,0,0,0l.57-.98,9.1,5.33c-.22.77-.32,1.57-.32,2.38,0,2.33.91,4.56,2.56,6.21,1.65,1.65,3.88,2.57,6.21,2.57.17,0,.34,0,.51-.02,0,.17-.02.33-.02.5-.01,4.83,3.9,8.76,8.73,8.77.01,0,.03,0,.04,0,.17,0,.34,0,.51-.02,0,.17-.02.34-.02.51-.01,4.83,3.9,8.76,8.73,8.77.01,0,.03,0,.04,0,.62,0,1.23-.06,1.84-.19.58,3.55,3.65,6.16,7.25,6.15.88,0,1.76-.16,2.58-.46l.44.44c2.87,2.87,7.52,2.88,10.39,0,1.09-1.09,1.81-2.49,2.06-4.01.6.13,1.22.19,1.84.2,4.84,0,8.77-3.91,8.77-8.75,0-.18,0-.35-.02-.53.17,0,.33.02.5.02,4.84,0,8.76-3.9,8.77-8.74,0-.18,0-.36-.02-.54.17,0,.33.02.5.02,4.85,0,8.78-3.94,8.77-8.79,0-1.81-.56-3.57-1.6-5.05l12.3-7.07,1.9,3.29c.62,1.07,1.98,1.43,3.04.82l15.71-9.07c1.07-.62,1.43-1.98.82-3.04l-20.6-35.68c-.62-1.07-1.98-1.43-3.04-.82l-15.71,9.07c-1.07.62-1.43,1.98-.82,3.04l1.82,3.16-2.6.99c-1.19.48-2.52.5-3.74.08l-17.36-5.79c-1.95-.67-4.08-.52-5.92.4l-3.46,1.7s-.06-.04-.1-.06l-4.12-2.17c-2.25-1.21-4.95-1.22-7.22-.04l-5.49,2.81c-.42.23-.88.36-1.36.36l-13.1.15.92-1.59c.62-1.07.25-2.43-.82-3.04l-15.71-9.07c-1.07-.62-2.43-.25-3.04.82l-20.6,35.68c-.62,1.07-.25,2.43.82,3.04h0ZM251.59,235.6c-1.68-1.69-1.68-4.42,0-6.11l7.84-7.84c1.69-1.68,4.43-1.67,6.11.02,1.67,1.69,1.67,4.41,0,6.09l-7.84,7.84c-1.69,1.68-4.42,1.68-6.11,0h0ZM260.86,244.87c-1.68-1.69-1.68-4.42,0-6.11h0s7.84-7.84,7.84-7.84c1.7-1.67,4.44-1.65,6.11.05,1.66,1.68,1.66,4.38,0,6.06l-7.84,7.84c-1.69,1.68-4.42,1.68-6.11,0ZM270.12,254.13c-1.68-1.69-1.68-4.42,0-6.11l7.84-7.84c1.69-1.69,4.42-1.69,6.11,0,1.69,1.69,1.69,4.42,0,6.11-.07.08-.14.16-.21.24-.23.18-.46.38-.67.59l-6.13,6.13c-.21.21-.41.43-.59.67-.09.06-.17.13-.24.21-1.69,1.68-4.42,1.68-6.11,0h0ZM280.21,260.5c-1.13-1.13-1.13-2.96,0-4.1l6.13-6.13c1.13-1.13,2.96-1.13,4.1,0s1.13,2.96,0,4.1l-6.13,6.13c-1.13,1.12-2.96,1.12-4.1,0ZM292.53,262.63c-1.12,1.12-2.93,1.13-4.07.02l4.09-4.09c1.11,1.14,1.09,2.95-.02,4.07ZM302.63,256.26c-1.69,1.68-4.42,1.68-6.11,0-.08-.07-.16-.14-.24-.21-.18-.23-.38-.46-.59-.67l-.43-.43c1.46-3.78-.43-8.03-4.21-9.49-.47-.18-.95-.31-1.45-.39.24-1.15.26-2.33.04-3.48,1.69-.94,3.79-.64,5.15.72l7.84,7.84c1.68,1.69,1.68,4.42,0,6.11h0ZM311.89,246.99c-1.69,1.68-4.42,1.68-6.11,0l-7.84-7.84c-1.66-1.72-1.61-4.45.11-6.11,1.67-1.61,4.32-1.62,6,0h0s7.84,7.84,7.84,7.84c1.69,1.69,1.69,4.42,0,6.11h0ZM321.15,237.73c-1.69,1.68-4.42,1.68-6.11,0l-7.84-7.84c-1.67-1.7-1.65-4.44.05-6.11,1.68-1.66,4.38-1.66,6.06,0l7.84,7.84c1.68,1.69,1.68,4.42,0,6.11h0ZM335.68,183l18.37,31.82-11.85,6.84-18.37-31.82,11.85-6.84ZM293.03,192.97c.78-.41,1.7-.47,2.54-.17l17.36,5.79c2.19.75,4.57.7,6.73-.14l3.28-1.24,12.4,21.47-13.22,7.6-5.65-5.65c-.6-.6-1.28-1.11-2.03-1.51l-17.77-13.32c-1.13-.85-2.48-1.35-3.88-1.45l-2.61-.23c-2.99-.29-5.87,1.18-7.38,3.77l-3.46,5.69c-.1.2-.33.3-.55.26l-5.27-.66c-.31-.04-.52-.32-.48-.62,0-.03,0-.05.02-.08l2.76-9.78c.24-.92.88-1.69,1.74-2.09l15.48-7.63ZM269.37,196.04c1.17-.01,2.31-.31,3.34-.85l5.49-2.81c.97-.52,2.14-.52,3.11.02l1.36.72-7.1,3.5c-2,.96-3.48,2.74-4.06,4.88l-2.76,9.78c-.75,2.67.8,5.44,3.47,6.19.24.07.49.12.73.15l5.27.66c1.96.26,3.9-.67,4.91-2.37l3.46-5.69c.64-1.13,1.89-1.77,3.18-1.65l2.61.23c.58.03,1.14.23,1.6.58l12.64,9.48c-3.14,1.42-5.16,4.55-5.15,8,0,.17,0,.34.02.5-4.83-.29-8.98,3.39-9.26,8.22-.01.18-.02.36-.02.54,0,.17,0,.34.02.5-1.57-.09-3.13.24-4.53.96-.15-.18-.32-.36-.49-.53-1.77-1.77-4.21-2.7-6.72-2.55,0-.17.02-.33.02-.5.01-4.84-3.9-8.77-8.74-8.78-.18,0-.36,0-.54.02.29-4.83-3.4-8.97-8.22-9.26-.18-.01-.36-.02-.53-.02-2.33,0-4.56.91-6.21,2.56l-7.82,7.83-9.12-5.34,14.3-24.76,15.74-.18ZM240.32,183l11.85,6.84-18.37,31.82-11.85-6.84,18.37-31.82ZM288,184.92c14.43,0,26.12-11.7,26.12-26.12,0-14.43-11.7-26.12-26.12-26.12-14.43,0-26.12,11.7-26.12,26.12h0c.02,14.42,11.7,26.11,26.12,26.12ZM288,137.13c11.96,0,21.66,9.7,21.66,21.66,0,11.96-9.7,21.66-21.66,21.66-11.96,0-21.66-9.7-21.66-21.66h0c.01-11.96,9.7-21.65,21.66-21.66h0ZM278.08,158.9c-.72-1-.5-2.39.49-3.11,1-.72,2.39-.5,3.11.49l3.41,4.7,11.36-9.3c.96-.77,2.36-.63,3.13.33.77.95.63,2.34-.31,3.12l-13.19,10.8c-.95.78-2.36.64-3.14-.31-.03-.03-.05-.07-.08-.1l-4.8-6.61Z"/>
  <path class="st2" d="M163.14,528.12h249.72c8.52,0,16.4-4.55,20.66-11.93l124.86-216.26c4.26-7.38,4.26-16.48,0-23.86l-124.86-216.26c-4.26-7.38-12.14-11.93-20.66-11.93h-249.72c-8.52,0-16.4,4.55-20.66,11.93L17.62,276.07c-4.26,7.38-4.26,16.48,0,23.86l124.86,216.26c4.26,7.38,12.14,11.93,20.66,11.93Z"/>
  <g>
    <path class="st3" d="M201.7,299.76h29.7v5.35h-11.88v24.36h-5.94v-24.36h-11.88v-5.35Z"/>
    <path class="st3" d="M238.24,299.76h21.39c5.35,0,8.91,3.56,8.91,8.91,0,4.75-3.09,8.08-7.78,8.55.42.48.83,1.01,1.07,1.43l6.71,10.81h-6.71l-7.54-12.18h-10.1v12.18h-5.94v-29.7ZM259.63,311.94c1.78,0,2.97-1.19,2.97-2.97v-.89c0-1.78-1.19-2.97-2.97-2.97h-15.45v6.83h15.45Z"/>
    <path class="st3" d="M298.54,315.21v-15.45h5.94v15.45c0,8.55-6.06,14.85-14.26,14.85s-14.26-6.3-14.26-14.85v-15.45h5.94v15.45c0,5.35,3.5,9.21,8.32,9.21s8.32-3.86,8.32-9.21Z"/>
    <path class="st3" d="M334.49,320.38c0-2.38-2.61-3.39-8.55-3.39-9.39,0-13.43-2.5-13.43-8.5s4.75-9.33,13.66-9.33c8.2,0,13.66,3.8,13.66,9.51h-5.94c0-2.49-3.09-4.16-7.72-4.16-5.05,0-7.72,1.37-7.72,3.98,0,2.26,2.38,3.15,8.02,3.15,9.8,0,13.96,2.67,13.96,8.73s-4.99,9.68-14.26,9.68c-8.55,0-14.26-3.8-14.26-9.51h5.94c0,2.49,3.33,4.16,8.32,4.16,5.41,0,8.32-1.54,8.32-4.34Z"/>
    <path class="st3" d="M344.59,299.76h29.7v5.35h-11.88v24.36h-5.94v-24.36h-11.88v-5.35Z"/>
  </g>
</svg>